<svg width="128" height="128" viewBox="0 0 128 128" fill="none" xmlns="http://www.w3.org/2000/svg">
<path d="M64 0C74.0999 1.2044e-07 84.0563 2.39034 93.0554 6.97558C102.054 11.5608 109.841 18.2108 115.777 26.3817C121.714 34.5527 125.632 44.0127 127.212 53.9882C128.792 63.9637 127.989 74.1715 124.868 83.7771L100.521 75.8662C102.393 70.1029 102.875 63.9782 101.927 57.9929C100.979 52.0076 98.6282 46.3316 95.0663 41.429C91.5043 36.5265 86.8327 32.5365 81.4332 29.7853C76.0338 27.0342 70.0599 25.6 64 25.6V0Z" fill="#CCD3FA"/>
<path d="M124.866 83.7808C120.689 96.6345 112.55 107.836 101.615 115.779C90.6804 123.723 77.5116 128.001 63.9961 128L63.9977 102.4C72.107 102.4 80.0082 99.8337 86.5691 95.0676C93.1299 90.3015 98.0135 83.5807 100.52 75.8685L124.866 83.7808Z" fill="#CCF0FA"/>
<path d="M64 128C50.4845 128 37.316 123.721 26.3817 115.777C15.4475 107.833 7.30888 96.631 3.13237 83.7771L27.4794 75.8662C29.9853 83.5786 34.8685 90.2997 41.429 95.0662C47.9896 99.8328 55.8907 102.4 64 102.4L64 128Z" fill="#FEC391"/>
<path d="M3.15684 83.8522C0.0239562 74.2505 -0.792017 64.0437 0.775637 54.0662C2.34329 44.0888 6.25006 34.624 12.1765 26.4457C18.103 18.2674 25.8809 11.6078 34.8743 7.01148C43.8676 2.41514 53.8212 0.0125124 63.921 4.87316e-05L63.9526 25.6C57.8927 25.6075 51.9206 27.0491 46.5246 29.8069C41.1285 32.5647 36.4618 36.5604 32.9059 41.4674C29.35 46.3744 27.006 52.0533 26.0654 58.0397C25.1248 64.0262 25.6144 70.1503 27.4941 75.9113L3.15684 83.8522Z" fill="#EC91FE"/>
</svg>
