<svg width="200" height="200" viewBox="0 0 200 200" fill="none" xmlns="http://www.w3.org/2000/svg">
<rect x="100" y="100" width="100" height="100" transform="rotate(-90 100 100)" fill="#CCD3FA"/>
<path d="M200 100V0L100 100H200Z" fill="#161622"/>
<rect x="100" width="100" height="100" transform="rotate(90 100 0)" fill="#CCD3FA"/>
<path d="M0 0V100L100 0L0 0Z" fill="#161622"/>
<rect x="200" y="100" width="100" height="100" transform="rotate(90 200 100)" fill="#CCD3FA"/>
<path d="M100 100V200L150 150L100 100Z" fill="#161622"/>
<path d="M100 200H200L150 150L100 200Z" fill="#161622"/>
<path d="M200 200V100L150 150L200 200Z" fill="#CCF0FA"/>
<path d="M200 100H100L150 150L200 100Z" fill="#CCF0FA"/>
</svg>
