<svg width="64" height="64" viewBox="0 0 64 64" fill="none" xmlns="http://www.w3.org/2000/svg">
<path d="M64 0H0V64H64V0Z" fill="#29293D"/>
<path d="M14.6284 12.8H12.7998V14.6286H14.6284V12.8Z" fill="white"/>
<path d="M16.4569 12.8H14.6284V14.6286H16.4569V12.8Z" fill="white"/>
<path d="M18.2855 12.8H16.4569V14.6286H18.2855V12.8Z" fill="white"/>
<path d="M20.1141 12.8H18.2855V14.6286H20.1141V12.8Z" fill="white"/>
<path d="M21.9427 12.8H20.1141V14.6286H21.9427V12.8Z" fill="white"/>
<path d="M23.7712 12.8H21.9427V14.6286H23.7712V12.8Z" fill="white"/>
<path d="M25.5998 12.8H23.7712V14.6286H25.5998V12.8Z" fill="white"/>
<path d="M29.2569 12.8H27.4284V14.6286H29.2569V12.8Z" fill="white"/>
<path d="M31.0855 12.8H29.2569V14.6286H31.0855V12.8Z" fill="white"/>
<path d="M32.9141 12.8H31.0855V14.6286H32.9141V12.8Z" fill="white"/>
<path d="M40.2284 12.8H38.3998V14.6286H40.2284V12.8Z" fill="white"/>
<path d="M42.0569 12.8H40.2284V14.6286H42.0569V12.8Z" fill="white"/>
<path d="M43.8855 12.8H42.0569V14.6286H43.8855V12.8Z" fill="white"/>
<path d="M45.7141 12.8H43.8855V14.6286H45.7141V12.8Z" fill="white"/>
<path d="M47.5427 12.8H45.7141V14.6286H47.5427V12.8Z" fill="white"/>
<path d="M49.3712 12.8H47.5427V14.6286H49.3712V12.8Z" fill="white"/>
<path d="M51.1998 12.8H49.3712V14.6286H51.1998V12.8Z" fill="white"/>
<path d="M14.6284 14.6286H12.7998V16.4571H14.6284V14.6286Z" fill="white"/>
<path d="M25.5998 14.6286H23.7712V16.4571H25.5998V14.6286Z" fill="white"/>
<path d="M32.9141 14.6286H31.0855L31.0855 16.4571H32.9141V14.6286Z" fill="white"/>
<path d="M40.2284 14.6286H38.3998V16.4571H40.2284V14.6286Z" fill="white"/>
<path d="M51.1998 14.6286H49.3712V16.4571H51.1998V14.6286Z" fill="white"/>
<path d="M14.6284 16.4571H12.7998V18.2857H14.6284V16.4571Z" fill="white"/>
<path d="M18.2855 16.4571H16.4569V18.2857H18.2855V16.4571Z" fill="white"/>
<path d="M20.1141 16.4571H18.2855V18.2857H20.1141V16.4571Z" fill="white"/>
<path d="M21.9427 16.4571H20.1141V18.2857H21.9427V16.4571Z" fill="white"/>
<path d="M25.5998 16.4571H23.7712V18.2857H25.5998V16.4571Z" fill="white"/>
<path d="M29.2569 16.4571H27.4284V18.2857H29.2569V16.4571Z" fill="white"/>
<path d="M32.9141 16.4571H31.0855V18.2857H32.9141V16.4571Z" fill="white"/>
<path d="M36.5712 16.4571H34.7427V18.2857H36.5712V16.4571Z" fill="white"/>
<path d="M40.2284 16.4571H38.3998V18.2857H40.2284V16.4571Z" fill="white"/>
<path d="M43.8855 16.4571H42.0569V18.2857H43.8855V16.4571Z" fill="white"/>
<path d="M45.7141 16.4571H43.8855V18.2857H45.7141V16.4571Z" fill="white"/>
<path d="M47.5427 16.4571H45.7141V18.2857H47.5427V16.4571Z" fill="white"/>
<path d="M51.1998 16.4571H49.3712V18.2857H51.1998V16.4571Z" fill="white"/>
<path d="M14.6284 18.2857H12.7998V20.1143H14.6284V18.2857Z" fill="white"/>
<path d="M18.2855 18.2857H16.4569V20.1143H18.2855V18.2857Z" fill="white"/>
<path d="M20.1141 18.2857H18.2855V20.1143H20.1141V18.2857Z" fill="white"/>
<path d="M21.9427 18.2857H20.1141V20.1143H21.9427V18.2857Z" fill="white"/>
<path d="M25.5998 18.2857H23.7712V20.1143H25.5998V18.2857Z" fill="white"/>
<path d="M29.2569 18.2857H27.4284V20.1143H29.2569V18.2857Z" fill="white"/>
<path d="M32.9141 18.2857H31.0855V20.1143H32.9141V18.2857Z" fill="white"/>
<path d="M34.7427 18.2857H32.9141V20.1143H34.7427V18.2857Z" fill="white"/>
<path d="M36.5712 18.2857H34.7427V20.1143H36.5712V18.2857Z" fill="white"/>
<path d="M40.2284 18.2857H38.3998V20.1143H40.2284V18.2857Z" fill="white"/>
<path d="M43.8855 18.2857H42.0569V20.1143H43.8855V18.2857Z" fill="white"/>
<path d="M45.7141 18.2857H43.8855V20.1143H45.7141V18.2857Z" fill="white"/>
<path d="M47.5427 18.2857H45.7141V20.1143H47.5427V18.2857Z" fill="white"/>
<path d="M51.1998 18.2857H49.3712V20.1143H51.1998V18.2857Z" fill="white"/>
<path d="M14.6284 20.1143H12.7998V21.9428H14.6284V20.1143Z" fill="white"/>
<path d="M18.2855 20.1143H16.4569V21.9428H18.2855V20.1143Z" fill="white"/>
<path d="M20.1141 20.1143H18.2855V21.9428H20.1141V20.1143Z" fill="white"/>
<path d="M21.9427 20.1143H20.1141V21.9428H21.9427V20.1143Z" fill="white"/>
<path d="M25.5998 20.1143H23.7712V21.9428H25.5998V20.1143Z" fill="white"/>
<path d="M29.2569 20.1143H27.4284V21.9428H29.2569V20.1143Z" fill="white"/>
<path d="M31.0855 20.1143H29.2569V21.9428H31.0855L31.0855 20.1143Z" fill="white"/>
<path d="M34.7427 20.1143H32.9141L32.9141 21.9428H34.7427V20.1143Z" fill="white"/>
<path d="M40.2284 20.1143H38.3998V21.9428H40.2284V20.1143Z" fill="white"/>
<path d="M43.8855 20.1143H42.0569V21.9428H43.8855V20.1143Z" fill="white"/>
<path d="M45.7141 20.1143H43.8855V21.9428H45.7141V20.1143Z" fill="white"/>
<path d="M47.5427 20.1143H45.7141V21.9428H47.5427V20.1143Z" fill="white"/>
<path d="M51.1998 20.1143H49.3712V21.9428H51.1998V20.1143Z" fill="white"/>
<path d="M14.6284 21.9428H12.7998V23.7714H14.6284V21.9428Z" fill="white"/>
<path d="M25.5998 21.9428H23.7712V23.7714H25.5998V21.9428Z" fill="white"/>
<path d="M29.2569 21.9428H27.4284V23.7714H29.2569V21.9428Z" fill="white"/>
<path d="M31.0855 21.9428H29.2569V23.7714H31.0855V21.9428Z" fill="white"/>
<path d="M32.9141 21.9428H31.0855V23.7714H32.9141L32.9141 21.9428Z" fill="white"/>
<path d="M34.7427 21.9428H32.9141L32.9141 23.7714H34.7427V21.9428Z" fill="white"/>
<path d="M36.5712 21.9428H34.7427V23.7714H36.5712V21.9428Z" fill="white"/>
<path d="M40.2284 21.9428H38.3998V23.7714H40.2284V21.9428Z" fill="white"/>
<path d="M51.1998 21.9428H49.3712V23.7714H51.1998V21.9428Z" fill="white"/>
<path d="M14.6284 23.7714H12.7998V25.6H14.6284V23.7714Z" fill="white"/>
<path d="M16.4569 23.7714H14.6284V25.6H16.4569V23.7714Z" fill="white"/>
<path d="M18.2855 23.7714H16.4569V25.6H18.2855V23.7714Z" fill="white"/>
<path d="M20.1141 23.7714H18.2855V25.6H20.1141V23.7714Z" fill="white"/>
<path d="M21.9427 23.7714H20.1141V25.6H21.9427V23.7714Z" fill="white"/>
<path d="M23.7712 23.7714H21.9427V25.6H23.7712V23.7714Z" fill="white"/>
<path d="M25.5998 23.7714H23.7712V25.6H25.5998V23.7714Z" fill="white"/>
<path d="M29.2569 23.7714H27.4284V25.6H29.2569V23.7714Z" fill="white"/>
<path d="M32.9141 23.7714H31.0855L31.0855 25.6H32.9141V23.7714Z" fill="white"/>
<path d="M36.5712 23.7714H34.7427V25.6H36.5712V23.7714Z" fill="white"/>
<path d="M40.2284 23.7714H38.3998V25.6H40.2284V23.7714Z" fill="white"/>
<path d="M42.0569 23.7714H40.2284V25.6H42.0569V23.7714Z" fill="white"/>
<path d="M43.8855 23.7714H42.0569V25.6H43.8855V23.7714Z" fill="white"/>
<path d="M45.7141 23.7714H43.8855V25.6H45.7141V23.7714Z" fill="white"/>
<path d="M47.5427 23.7714H45.7141V25.6H47.5427V23.7714Z" fill="white"/>
<path d="M49.3712 23.7714H47.5427V25.6H49.3712V23.7714Z" fill="white"/>
<path d="M51.1998 23.7714H49.3712V25.6H51.1998V23.7714Z" fill="white"/>
<path d="M31.0855 25.6H29.2569V27.4286H31.0855L31.0855 25.6Z" fill="white"/>
<path d="M32.9141 25.6H31.0855L31.0855 27.4286H32.9141V25.6Z" fill="white"/>
<path d="M18.2855 27.4286H16.4569V29.2571H18.2855V27.4286Z" fill="white"/>
<path d="M20.1141 27.4286H18.2855V29.2571H20.1141V27.4286Z" fill="white"/>
<path d="M21.9427 27.4286H20.1141V29.2571H21.9427V27.4286Z" fill="white"/>
<path d="M23.7712 27.4286H21.9427V29.2571H23.7712V27.4286Z" fill="white"/>
<path d="M25.5998 27.4286H23.7712V29.2571H25.5998V27.4286Z" fill="white"/>
<path d="M27.4284 27.4286H25.5998V29.2571H27.4284V27.4286Z" fill="white"/>
<path d="M31.0855 27.4286H29.2569V29.2571H31.0855V27.4286Z" fill="white"/>
<path d="M32.9141 27.4286H31.0855V29.2571H32.9141V27.4286Z" fill="white"/>
<path d="M36.5712 27.4286H34.7427V29.2571H36.5712V27.4286Z" fill="white"/>
<path d="M38.3998 27.4286H36.5712V29.2571H38.3998V27.4286Z" fill="white"/>
<path d="M42.0569 27.4286H40.2284V29.2571H42.0569V27.4286Z" fill="white"/>
<path d="M43.8855 27.4286H42.0569V29.2571H43.8855V27.4286Z" fill="white"/>
<path d="M45.7141 27.4286H43.8855V29.2571H45.7141V27.4286Z" fill="white"/>
<path d="M47.5427 27.4286H45.7141V29.2571H47.5427V27.4286Z" fill="white"/>
<path d="M51.1998 27.4286H49.3712V29.2571H51.1998V27.4286Z" fill="white"/>
<path d="M18.2855 29.2571H16.4569V31.0857H18.2855V29.2571Z" fill="white"/>
<path d="M21.9427 29.2571H20.1141V31.0857H21.9427V29.2571Z" fill="white"/>
<path d="M23.7712 29.2571H21.9427V31.0857H23.7712V29.2571Z" fill="white"/>
<path d="M27.4284 29.2571H25.5998V31.0857H27.4284V29.2571Z" fill="white"/>
<path d="M29.2569 29.2571H27.4284V31.0857H29.2569V29.2571Z" fill="white"/>
<path d="M34.7427 29.2571H32.9141L32.9141 31.0857H34.7427V29.2571Z" fill="white"/>
<path d="M43.8855 29.2571H42.0569V31.0857H43.8855V29.2571Z" fill="white"/>
<path d="M47.5427 29.2571H45.7141V31.0857H47.5427V29.2571Z" fill="white"/>
<path d="M49.3712 29.2571H47.5427V31.0857H49.3712V29.2571Z" fill="white"/>
<path d="M18.2855 31.0857H16.4569V32.9143H18.2855V31.0857Z" fill="white"/>
<path d="M20.1141 31.0857H18.2855V32.9143H20.1141V31.0857Z" fill="white"/>
<path d="M25.5998 31.0857H23.7712V32.9143H25.5998V31.0857Z" fill="white"/>
<path d="M27.4284 31.0857H25.5998V32.9143H27.4284V31.0857Z" fill="white"/>
<path d="M29.2569 31.0857H27.4284V32.9143H29.2569V31.0857Z" fill="white"/>
<path d="M36.5712 31.0857L34.7427 31.0857V32.9143H36.5712V31.0857Z" fill="white"/>
<path d="M38.3998 31.0857H36.5712V32.9143H38.3998V31.0857Z" fill="white"/>
<path d="M40.2284 31.0857H38.3998V32.9143H40.2284V31.0857Z" fill="white"/>
<path d="M43.8855 31.0857H42.0569V32.9143H43.8855V31.0857Z" fill="white"/>
<path d="M45.7141 31.0857H43.8855V32.9143H45.7141V31.0857Z" fill="white"/>
<path d="M49.3712 31.0857H47.5427V32.9143H49.3712V31.0857Z" fill="white"/>
<path d="M20.1141 32.9143H18.2855V34.7428H20.1141V32.9143Z" fill="white"/>
<path d="M23.7712 32.9143L21.9427 32.9143V34.7428H23.7712V32.9143Z" fill="white"/>
<path d="M29.2569 32.9143H27.4284L27.4284 34.7428H29.2569V32.9143Z" fill="white"/>
<path d="M31.0855 32.9143L29.2569 32.9143V34.7428H31.0855V32.9143Z" fill="white"/>
<path d="M34.7427 32.9143L32.9141 32.9143V34.7428H34.7427V32.9143Z" fill="white"/>
<path d="M40.2284 32.9143H38.3998V34.7428H40.2284V32.9143Z" fill="white"/>
<path d="M43.8855 32.9143H42.0569V34.7428H43.8855V32.9143Z" fill="white"/>
<path d="M45.7141 32.9143H43.8855V34.7428H45.7141V32.9143Z" fill="white"/>
<path d="M49.3712 32.9143H47.5427V34.7428H49.3712V32.9143Z" fill="white"/>
<path d="M18.2855 34.7428H16.4569V36.5714H18.2855V34.7428Z" fill="white"/>
<path d="M21.9427 34.7428H20.1141V36.5714H21.9427V34.7428Z" fill="white"/>
<path d="M25.5998 34.7428H23.7712V36.5714H25.5998V34.7428Z" fill="white"/>
<path d="M31.0855 34.7428H29.2569V36.5714H31.0855V34.7428Z" fill="white"/>
<path d="M32.9141 34.7428H31.0855V36.5714H32.9141L32.9141 34.7428Z" fill="white"/>
<path d="M34.7427 34.7428H32.9141L32.9141 36.5714H34.7427V34.7428Z" fill="white"/>
<path d="M36.5712 34.7428H34.7427V36.5714H36.5712V34.7428Z" fill="white"/>
<path d="M38.3998 34.7428H36.5712V36.5714H38.3998V34.7428Z" fill="white"/>
<path d="M45.7141 34.7428H43.8855V36.5714H45.7141V34.7428Z" fill="white"/>
<path d="M47.5427 34.7428H45.7141V36.5714H47.5427V34.7428Z" fill="white"/>
<path d="M49.3712 34.7428H47.5427V36.5714H49.3712V34.7428Z" fill="white"/>
<path d="M51.1998 34.7428H49.3712V36.5714H51.1998V34.7428Z" fill="white"/>
<path d="M31.0855 36.5714H29.2569V38.4H31.0855V36.5714Z" fill="white"/>
<path d="M34.7427 36.5714H32.9141L32.9141 38.4H34.7427V36.5714Z" fill="white"/>
<path d="M40.2284 36.5714H38.3998V38.4H40.2284V36.5714Z" fill="white"/>
<path d="M43.8855 36.5714H42.0569V38.4H43.8855V36.5714Z" fill="white"/>
<path d="M45.7141 36.5714H43.8855V38.4H45.7141V36.5714Z" fill="white"/>
<path d="M49.3712 36.5714H47.5427V38.4H49.3712V36.5714Z" fill="white"/>
<path d="M14.6284 38.4H12.7998V40.2286H14.6284V38.4Z" fill="white"/>
<path d="M16.4569 38.4H14.6284V40.2286H16.4569V38.4Z" fill="white"/>
<path d="M18.2855 38.4H16.4569V40.2286H18.2855V38.4Z" fill="white"/>
<path d="M20.1141 38.4H18.2855V40.2286H20.1141V38.4Z" fill="white"/>
<path d="M21.9427 38.4H20.1141V40.2286H21.9427V38.4Z" fill="white"/>
<path d="M23.7712 38.4H21.9427V40.2286H23.7712V38.4Z" fill="white"/>
<path d="M25.5998 38.4H23.7712V40.2286H25.5998V38.4Z" fill="white"/>
<path d="M29.2569 38.4H27.4284V40.2286H29.2569V38.4Z" fill="white"/>
<path d="M31.0855 38.4H29.2569V40.2286H31.0855V38.4Z" fill="white"/>
<path d="M32.9141 38.4H31.0855V40.2286H32.9141L32.9141 38.4Z" fill="white"/>
<path d="M34.7427 38.4H32.9141L32.9141 40.2286H34.7427V38.4Z" fill="white"/>
<path d="M45.7141 38.4H43.8855V40.2286H45.7141V38.4Z" fill="white"/>
<path d="M47.5427 38.4H45.7141V40.2286H47.5427V38.4Z" fill="white"/>
<path d="M49.3712 38.4H47.5427V40.2286H49.3712V38.4Z" fill="white"/>
<path d="M14.6284 40.2286H12.7998V42.0571H14.6284V40.2286Z" fill="white"/>
<path d="M25.5998 40.2286H23.7712V42.0571H25.5998V40.2286Z" fill="white"/>
<path d="M29.2569 40.2286H27.4284V42.0571H29.2569V40.2286Z" fill="white"/>
<path d="M32.9141 40.2286H31.0855L31.0855 42.0571H32.9141V40.2286Z" fill="white"/>
<path d="M36.5712 40.2286H34.7427V42.0571H36.5712V40.2286Z" fill="white"/>
<path d="M38.3998 40.2286H36.5712V42.0571H38.3998V40.2286Z" fill="white"/>
<path d="M42.0569 40.2286H40.2284V42.0571H42.0569V40.2286Z" fill="white"/>
<path d="M47.5427 40.2286H45.7141V42.0571H47.5427V40.2286Z" fill="white"/>
<path d="M51.1998 40.2286H49.3712V42.0571H51.1998V40.2286Z" fill="white"/>
<path d="M14.6284 42.0571H12.7998V43.8857H14.6284V42.0571Z" fill="white"/>
<path d="M18.2855 42.0571H16.4569V43.8857H18.2855V42.0571Z" fill="white"/>
<path d="M20.1141 42.0571H18.2855V43.8857H20.1141V42.0571Z" fill="white"/>
<path d="M21.9427 42.0571H20.1141V43.8857H21.9427V42.0571Z" fill="white"/>
<path d="M25.5998 42.0571H23.7712V43.8857H25.5998V42.0571Z" fill="white"/>
<path d="M29.2569 42.0571H27.4284V43.8857H29.2569V42.0571Z" fill="white"/>
<path d="M40.2284 42.0571H38.3998V43.8857H40.2284V42.0571Z" fill="white"/>
<path d="M42.0569 42.0571H40.2284V43.8857H42.0569V42.0571Z" fill="white"/>
<path d="M43.8855 42.0571H42.0569V43.8857H43.8855V42.0571Z" fill="white"/>
<path d="M14.6284 43.8857H12.7998V45.7143H14.6284V43.8857Z" fill="white"/>
<path d="M18.2855 43.8857H16.4569V45.7143H18.2855V43.8857Z" fill="white"/>
<path d="M20.1141 43.8857H18.2855V45.7143H20.1141V43.8857Z" fill="white"/>
<path d="M21.9427 43.8857H20.1141V45.7143H21.9427V43.8857Z" fill="white"/>
<path d="M25.5998 43.8857H23.7712V45.7143H25.5998V43.8857Z" fill="white"/>
<path d="M29.2569 43.8857H27.4284V45.7143H29.2569V43.8857Z" fill="white"/>
<path d="M31.0855 43.8857H29.2569V45.7143H31.0855V43.8857Z" fill="white"/>
<path d="M32.9141 43.8857H31.0855V45.7143H32.9141V43.8857Z" fill="white"/>
<path d="M34.7427 43.8857H32.9141V45.7143H34.7427V43.8857Z" fill="white"/>
<path d="M36.5712 43.8857H34.7427V45.7143H36.5712V43.8857Z" fill="white"/>
<path d="M40.2284 43.8857H38.3998V45.7143H40.2284V43.8857Z" fill="white"/>
<path d="M45.7141 43.8857H43.8855V45.7143H45.7141V43.8857Z" fill="white"/>
<path d="M49.3712 43.8857H47.5427V45.7143H49.3712V43.8857Z" fill="white"/>
<path d="M14.6284 45.7143H12.7998V47.5428H14.6284V45.7143Z" fill="white"/>
<path d="M18.2855 45.7143H16.4569V47.5428H18.2855V45.7143Z" fill="white"/>
<path d="M20.1141 45.7143H18.2855V47.5428H20.1141V45.7143Z" fill="white"/>
<path d="M21.9427 45.7143H20.1141V47.5428H21.9427V45.7143Z" fill="white"/>
<path d="M25.5998 45.7143H23.7712V47.5428H25.5998V45.7143Z" fill="white"/>
<path d="M29.2569 45.7143H27.4284V47.5428H29.2569V45.7143Z" fill="white"/>
<path d="M31.0855 45.7143H29.2569V47.5428H31.0855V45.7143Z" fill="white"/>
<path d="M32.9141 45.7143H31.0855V47.5428H32.9141V45.7143Z" fill="white"/>
<path d="M34.7427 45.7143H32.9141V47.5428H34.7427V45.7143Z" fill="white"/>
<path d="M40.2284 45.7143H38.3998V47.5428H40.2284V45.7143Z" fill="white"/>
<path d="M42.0569 45.7143H40.2284V47.5428H42.0569V45.7143Z" fill="white"/>
<path d="M43.8855 45.7143H42.0569V47.5428H43.8855V45.7143Z" fill="white"/>
<path d="M51.1998 45.7143H49.3712V47.5428H51.1998V45.7143Z" fill="white"/>
<path d="M14.6284 47.5428H12.7998V49.3714H14.6284V47.5428Z" fill="white"/>
<path d="M25.5998 47.5428H23.7712V49.3714H25.5998V47.5428Z" fill="white"/>
<path d="M31.0855 47.5428H29.2569V49.3714H31.0855V47.5428Z" fill="white"/>
<path d="M32.9141 47.5428H31.0855V49.3714H32.9141V47.5428Z" fill="white"/>
<path d="M34.7427 47.5428H32.9141V49.3714H34.7427V47.5428Z" fill="white"/>
<path d="M36.5712 47.5428H34.7427V49.3714H36.5712V47.5428Z" fill="white"/>
<path d="M40.2284 47.5428H38.3998V49.3714H40.2284V47.5428Z" fill="white"/>
<path d="M42.0569 47.5428H40.2284V49.3714H42.0569V47.5428Z" fill="white"/>
<path d="M51.1998 47.5428H49.3712V49.3714H51.1998V47.5428Z" fill="white"/>
<path d="M14.6284 49.3714H12.7998V51.2H14.6284V49.3714Z" fill="white"/>
<path d="M16.4569 49.3714H14.6284V51.2H16.4569V49.3714Z" fill="white"/>
<path d="M18.2855 49.3714H16.4569V51.2H18.2855V49.3714Z" fill="white"/>
<path d="M20.1141 49.3714H18.2855V51.2H20.1141V49.3714Z" fill="white"/>
<path d="M21.9427 49.3714H20.1141V51.2H21.9427V49.3714Z" fill="white"/>
<path d="M23.7712 49.3714H21.9427V51.2H23.7712V49.3714Z" fill="white"/>
<path d="M25.5998 49.3714H23.7712V51.2H25.5998V49.3714Z" fill="white"/>
<path d="M31.0855 49.3714H29.2569V51.2H31.0855V49.3714Z" fill="white"/>
<path d="M42.0569 49.3714H40.2284V51.2H42.0569V49.3714Z" fill="white"/>
</svg>
