<svg width="24" height="25" viewBox="0 0 24 25" fill="none" xmlns="http://www.w3.org/2000/svg">
<g clip-path="url(#clip0_94_365)">
<path d="M23.12 10.41L19.25 6.50002C19.157 6.40629 19.0464 6.3319 18.9246 6.28113C18.8027 6.23036 18.672 6.20422 18.54 6.20422C18.408 6.20422 18.2773 6.23036 18.1554 6.28113C18.0336 6.3319 17.923 6.40629 17.83 6.50002C17.6437 6.68738 17.5392 6.94084 17.5392 7.20502C17.5392 7.46921 17.6437 7.72266 17.83 7.91002L21.39 11.5H1C0.734784 11.5 0.48043 11.6054 0.292893 11.7929C0.105357 11.9805 0 12.2348 0 12.5H0C0 12.7652 0.105357 13.0196 0.292893 13.2071C0.48043 13.3947 0.734784 13.5 1 13.5H21.45L17.83 17.11C17.7363 17.203 17.6619 17.3136 17.6111 17.4354C17.5603 17.5573 17.5342 17.688 17.5342 17.82C17.5342 17.952 17.5603 18.0827 17.6111 18.2046C17.6619 18.3265 17.7363 18.4371 17.83 18.53C17.923 18.6238 18.0336 18.6981 18.1554 18.7489C18.2773 18.7997 18.408 18.8258 18.54 18.8258C18.672 18.8258 18.8027 18.7997 18.9246 18.7489C19.0464 18.6981 19.157 18.6238 19.25 18.53L23.12 14.65C23.6818 14.0875 23.9974 13.325 23.9974 12.53C23.9974 11.735 23.6818 10.9725 23.12 10.41Z" fill="#161622"/>
</g>
<defs>
<clipPath id="clip0_94_365">
<rect width="24" height="24" fill="white" transform="translate(0 0.5)"/>
</clipPath>
</defs>
</svg>
