<svg width="24" height="24" viewBox="0 0 24 24" fill="none" xmlns="http://www.w3.org/2000/svg">
<g clip-path="url(#clip0_236_1239)">
<path d="M2 7.17709V19.0001C2.00159 20.3257 2.52888 21.5965 3.46622 22.5339C4.40356 23.4712 5.67441 23.9985 7 24.0001H17C18.3256 23.9985 19.5964 23.4712 20.5338 22.5339C21.4711 21.5965 21.9984 20.3257 22 19.0001V7.17709C21.9999 6.64217 21.8568 6.117 21.5855 5.65598C21.3142 5.19497 20.9246 4.81488 20.457 4.55509L12.486 0.126087C12.3374 0.0434268 12.1701 4.57764e-05 12 4.57764e-05C11.8299 4.57764e-05 11.6626 0.0434268 11.514 0.126087L3.543 4.55509C3.0754 4.81488 2.68578 5.19497 2.41448 5.65598C2.14318 6.117 2.00008 6.64217 2 7.17709ZM12 5.50009C12.2967 5.50009 12.5867 5.58806 12.8334 5.75288C13.08 5.9177 13.2723 6.15197 13.3858 6.42606C13.4994 6.70015 13.5291 7.00175 13.4712 7.29272C13.4133 7.58369 13.2704 7.85097 13.0607 8.06075C12.8509 8.27053 12.5836 8.41339 12.2926 8.47126C12.0017 8.52914 11.7001 8.49944 11.426 8.38591C11.1519 8.27238 10.9176 8.08012 10.7528 7.83344C10.588 7.58677 10.5 7.29676 10.5 7.00009C10.5 6.60226 10.658 6.22073 10.9393 5.93943C11.2206 5.65812 11.6022 5.50009 12 5.50009Z" fill="#161622"/>
</g>
<defs>
<clipPath id="clip0_236_1239">
<rect width="24" height="24" fill="white"/>
</clipPath>
</defs>
</svg>
