<svg width="25" height="24" viewBox="0 0 25 24" fill="none" xmlns="http://www.w3.org/2000/svg">
<g clip-path="url(#clip0_132_542)">
<path d="M12.6666 16.0001C13.1322 16.0009 13.5917 15.8935 14.0086 15.686L16.0086 14.6861C17.028 14.1799 17.671 13.1382 17.6666 12.0001V9.03307C17.6701 7.89593 17.0272 6.85559 16.0086 6.35009L14.0086 5.3501C13.1635 4.9301 12.1706 4.9301 11.3256 5.3501L9.32556 6.35009C8.30659 6.85531 7.66323 7.89574 7.66656 9.03307V12.0001C7.6629 13.1375 8.30579 14.1782 9.32457 14.6841L11.3246 15.6841C11.7413 15.8922 12.2008 16.0003 12.6666 16.0001ZM9.66657 12.0001V9.03307C9.66817 8.93107 9.68537 8.82987 9.71757 8.73307L11.8976 9.82306C12.3817 10.065 12.9515 10.065 13.4356 9.82306L15.6156 8.73307C15.6478 8.82987 15.665 8.93107 15.6666 9.03307V12.0001C15.6682 12.3795 15.4537 12.7267 15.1136 12.8951L13.1136 13.895C12.8316 14.0346 12.5006 14.0346 12.2186 13.895L10.2186 12.8951C9.87892 12.7264 9.66479 12.3793 9.66657 12.0001ZM19.6666 22.0001H16.9576L20.4445 18.7781C24.7404 14.4823 24.7405 7.51756 20.4448 3.2217C16.1491 -1.07416 9.18432 -1.07421 4.88846 3.22146C0.592604 7.51713 0.59251 14.482 4.88823 18.7778C4.89765 18.7872 8.37559 22.0001 8.37559 22.0001H5.66659C5.11431 22.0001 4.6666 22.4478 4.6666 23C4.6666 23.5523 5.11431 24 5.66659 24H19.6666C20.2189 24 20.6666 23.5523 20.6666 23C20.6666 22.4478 20.2188 22.0001 19.6666 22.0001ZM6.30259 4.63606C9.80959 1.11331 15.5083 1.10056 19.0311 4.60756C22.5538 8.11456 22.5666 13.8133 19.0596 17.336L15.0746 21.017C13.7145 22.299 11.5887 22.2916 10.2376 21L6.30259 17.364C2.79329 13.847 2.79334 8.15309 6.30259 4.63606Z" fill="#81819C"/>
</g>
<defs>
<clipPath id="clip0_132_542">
<rect width="24" height="24" fill="white" transform="translate(0.666748)"/>
</clipPath>
</defs>
</svg>
