<svg width="24" height="24" viewBox="0 0 24 24" fill="none" xmlns="http://www.w3.org/2000/svg">
<g clip-path="url(#clip0_131_508)">
<path d="M19.071 17.2126C20.9477 15.3142 22.0002 12.7525 22.0002 10.0831C22.0002 7.41369 20.9477 4.85194 19.071 2.95359C18.1465 2.01782 17.0454 1.27487 15.8316 0.767795C14.6178 0.260722 13.3155 -0.00038147 12 -0.00038147C10.6846 -0.00038147 9.38219 0.260722 8.1684 0.767795C6.9546 1.27487 5.85353 2.01782 4.92901 2.95359C3.04795 4.85631 1.99515 7.42537 2.00002 10.1009C2.00489 12.7765 3.06704 15.3417 4.95501 17.2376L8.53901 20.5766C9.45687 21.4841 10.6946 21.9945 11.9853 21.9979C13.2761 22.0013 14.5164 21.4973 15.439 20.5946L19.071 17.2126ZM13.342 14.6486C12.925 14.8551 12.4659 14.9626 12.0005 14.9626C11.5351 14.9626 11.076 14.8551 10.659 14.6486L8.65901 13.6486C8.15943 13.4008 7.73924 13.018 7.44603 12.5436C7.15283 12.0693 6.99832 11.5223 7.00001 10.9646V7.99959C6.99804 7.44186 7.15231 6.89473 7.44534 6.42018C7.73838 5.94563 8.15847 5.56264 8.65801 5.31459L10.658 4.31459C11.0748 4.10741 11.534 3.99959 11.9995 3.99959C12.465 3.99959 12.9242 4.10741 13.341 4.31459L15.341 5.31459C15.8407 5.5625 16.261 5.94543 16.5542 6.41999C16.8475 6.89455 17.0019 7.44176 17 7.99959V10.9656C17.0018 11.5232 16.8474 12.0701 16.5544 12.5444C16.2614 13.0188 15.8414 13.4016 15.342 13.6496L13.342 14.6486ZM14.949 7.69359C14.9818 7.79232 14.999 7.89556 15 7.99959V10.9656C15.0008 11.1516 14.9494 11.334 14.8516 11.4923C14.7539 11.6505 14.6137 11.7781 14.447 11.8606L12.447 12.8606C12.3079 12.9297 12.1548 12.9656 11.9995 12.9656C11.8442 12.9656 11.6911 12.9297 11.552 12.8606L9.55201 11.8606C9.38537 11.7779 9.24529 11.65 9.1477 11.4916C9.05012 11.3332 8.99895 11.1506 9.00001 10.9646V7.99959C9.0016 7.89758 9.0188 7.79641 9.05101 7.69959L11.231 8.78959C11.4698 8.90894 11.7331 8.97107 12 8.97107C12.267 8.97107 12.5302 8.90894 12.769 8.78959L14.949 7.69359ZM20 22.9996C20 23.2648 19.8947 23.5192 19.7071 23.7067C19.5196 23.8942 19.2652 23.9996 19 23.9996H5.00001C4.73479 23.9996 4.48044 23.8942 4.2929 23.7067C4.10536 23.5192 4.00001 23.2648 4.00001 22.9996C4.00001 22.7344 4.10536 22.48 4.2929 22.2925C4.48044 22.1049 4.73479 21.9996 5.00001 21.9996H19C19.2652 21.9996 19.5196 22.1049 19.7071 22.2925C19.8947 22.48 20 22.7344 20 22.9996Z" fill="#161622"/>
</g>
<defs>
<clipPath id="clip0_131_508">
<rect width="24" height="24" fill="white"/>
</clipPath>
</defs>
</svg>
