<svg width="25" height="24" viewBox="0 0 25 24" fill="none" xmlns="http://www.w3.org/2000/svg">
<g clip-path="url(#clip0_127_513)">
<path d="M16.75 2.75C16.75 4.913 13.93 7.601 12.525 8.728C12.3051 8.90426 12.0318 9.00031 11.75 9.00031C11.4682 9.00031 11.1949 8.90426 10.975 8.728C9.57 7.6 6.75 4.913 6.75 2.75C6.71846 2.05422 6.96378 1.37427 7.4323 0.858905C7.90081 0.343541 8.55437 0.0347185 9.25 0C9.94563 0.0347185 10.5992 0.343541 11.0677 0.858905C11.5362 1.37427 11.7815 2.05422 11.75 2.75C11.7185 2.05422 11.9638 1.37427 12.4323 0.858905C12.9008 0.343541 13.5544 0.0347185 14.25 0C14.9456 0.0347185 15.5992 0.343541 16.0677 0.858905C16.5362 1.37427 16.7815 2.05422 16.75 2.75ZM24.088 12.35L16.388 20.759C15.4505 21.7812 14.3107 22.5972 13.0408 23.1552C11.771 23.7131 10.399 24.0008 9.012 24H4.75C3.68913 24 2.67172 23.5786 1.92157 22.8284C1.17143 22.0783 0.75 21.0609 0.75 20V15C0.75 13.9391 1.17143 12.9217 1.92157 12.1716C2.67172 11.4214 3.68913 11 4.75 11H12.537C12.8676 11.0006 13.1938 11.0752 13.4918 11.2181C13.7899 11.361 14.0522 11.5688 14.2597 11.8262C14.4671 12.0835 14.6144 12.384 14.6907 12.7056C14.7671 13.0272 14.7706 13.3619 14.701 13.685C14.5927 14.137 14.3489 14.5452 14.0022 14.8547C13.6554 15.1643 13.2224 15.3605 12.761 15.417L8.598 16C8.33562 16.0376 8.09892 16.1779 7.93991 16.39C7.7809 16.6021 7.71259 16.8686 7.75 17.131C7.7874 17.3936 7.92757 17.6305 8.13967 17.7897C8.35177 17.949 8.61844 18.0174 8.881 17.98L13.133 17.38C14.1345 17.2325 15.05 16.7311 15.7135 15.9666C16.3771 15.2022 16.7448 14.2253 16.75 13.213C16.7451 12.999 16.7234 12.7856 16.685 12.575L20.227 8.838C20.6941 8.33224 21.3423 8.03186 22.0301 8.00244C22.7179 7.97302 23.3894 8.21697 23.898 8.681C24.404 9.14472 24.7075 9.7887 24.743 10.4741C24.7785 11.1595 24.5433 11.8314 24.088 12.345V12.35Z" fill="#EC91FE"/>
</g>
<defs>
<clipPath id="clip0_127_513">
<rect width="24" height="24" fill="white" transform="translate(0.75)"/>
</clipPath>
</defs>
</svg>
