<svg width="24" height="24" viewBox="0 0 24 24" fill="none" xmlns="http://www.w3.org/2000/svg">
<g clip-path="url(#clip0_255_1209)">
<path d="M12.883 15.2158L4.948 23.1508C4.68125 23.4308 4.36117 23.6547 4.00659 23.8093C3.65202 23.9638 3.27011 24.0458 2.88336 24.0505C2.4966 24.0553 2.11281 23.9826 1.75457 23.8367C1.39633 23.6909 1.07089 23.4749 0.797388 23.2014C0.52389 22.9279 0.307867 22.6024 0.162032 22.2442C0.0161968 21.8859 -0.0565022 21.5022 -0.0517864 21.1154C-0.0470705 20.7286 0.0349648 20.3467 0.189491 19.9922C0.344018 19.6376 0.567913 19.3175 0.847998 19.0508L8.783 11.1158L12.883 15.2158ZM17.1 6.89975C16.5479 6.37211 15.8137 6.07765 15.05 6.07765C14.2863 6.07765 13.5521 6.37211 13 6.89975L10.2 9.69975L14.3 13.7998L17.1 10.9998C17.6435 10.4559 17.9488 9.71858 17.9488 8.94975C17.9488 8.18092 17.6435 7.44356 17.1 6.89975V6.89975ZM4.863 5.14475L6.413 5.58675L6.855 7.13675C6.9262 7.38547 7.07646 7.60424 7.28304 7.75997C7.48962 7.91571 7.74129 7.99995 8 7.99995C8.25871 7.99995 8.51038 7.91571 8.71696 7.75997C8.92354 7.60424 9.07379 7.38547 9.145 7.13675L9.587 5.58675L11.137 5.14475C11.3857 5.07355 11.6045 4.92329 11.7602 4.71671C11.916 4.51013 12.0002 4.25846 12.0002 3.99975C12.0002 3.74104 11.916 3.48937 11.7602 3.28279C11.6045 3.07621 11.3857 2.92596 11.137 2.85475L9.587 2.41275L9.145 0.862753C9.07379 0.614037 8.92354 0.39527 8.71696 0.239533C8.51038 0.0837953 8.25871 -0.000442505 8 -0.000442505C7.74129 -0.000442505 7.48962 0.0837953 7.28304 0.239533C7.07646 0.39527 6.9262 0.614037 6.855 0.862753L6.413 2.41275L4.863 2.85475C4.61428 2.92596 4.39552 3.07621 4.23978 3.28279C4.08404 3.48937 3.9998 3.74104 3.9998 3.99975C3.9998 4.25846 4.08404 4.51013 4.23978 4.71671C4.39552 4.92329 4.61428 5.07355 4.863 5.14475V5.14475ZM16.863 17.1448L18.413 17.5868L18.855 19.1368C18.9262 19.3855 19.0765 19.6042 19.283 19.76C19.4896 19.9157 19.7413 19.9999 20 19.9999C20.2587 19.9999 20.5104 19.9157 20.717 19.76C20.9235 19.6042 21.0738 19.3855 21.145 19.1368L21.587 17.5868L23.137 17.1448C23.3857 17.0735 23.6045 16.9233 23.7602 16.7167C23.916 16.5101 24.0002 16.2585 24.0002 15.9998C24.0002 15.741 23.916 15.4894 23.7602 15.2828C23.6045 15.0762 23.3857 14.926 23.137 14.8548L21.587 14.4128L21.145 12.8628C21.0738 12.614 20.9235 12.3953 20.717 12.2395C20.5104 12.0838 20.2587 11.9996 20 11.9996C19.7413 11.9996 19.4896 12.0838 19.283 12.2395C19.0765 12.3953 18.9262 12.614 18.855 12.8628L18.413 14.4128L16.863 14.8548C16.6143 14.926 16.3955 15.0762 16.2398 15.2828C16.084 15.4894 15.9998 15.741 15.9998 15.9998C15.9998 16.2585 16.084 16.5101 16.2398 16.7167C16.3955 16.9233 16.6143 17.0735 16.863 17.1448V17.1448ZM17.756 4.49975L19.111 4.88675L19.5 6.24375C19.5633 6.45994 19.695 6.64978 19.8753 6.78484C20.0555 6.9199 20.2747 6.9929 20.5 6.9929C20.7253 6.9929 20.9445 6.9199 21.1247 6.78484C21.305 6.64978 21.4367 6.45994 21.5 6.24375L21.887 4.88875L23.244 4.49975C23.4602 4.43644 23.65 4.30478 23.7851 4.1245C23.9201 3.94421 23.9931 3.72502 23.9931 3.49975C23.9931 3.27449 23.9201 3.05529 23.7851 2.87501C23.65 2.69472 23.4602 2.56306 23.244 2.49975L21.889 2.11275L21.5 0.755753C21.4367 0.53957 21.305 0.349724 21.1247 0.214665C20.9445 0.0796066 20.7253 0.00660759 20.5 0.00660759C20.2747 0.00660759 20.0555 0.0796066 19.8753 0.214665C19.695 0.349724 19.5633 0.53957 19.5 0.755753L19.113 2.11075L17.756 2.49975C17.5398 2.56306 17.35 2.69472 17.2149 2.87501C17.0799 3.05529 17.0069 3.27449 17.0069 3.49975C17.0069 3.72502 17.0799 3.94421 17.2149 4.1245C17.35 4.30478 17.5398 4.43644 17.756 4.49975Z" fill="#161622"/>
</g>
<defs>
<clipPath id="clip0_255_1209">
<rect width="24" height="24" fill="white"/>
</clipPath>
</defs>
</svg>
