<svg width="21" height="20" viewBox="0 0 21 20" fill="none" xmlns="http://www.w3.org/2000/svg">
<g clip-path="url(#clip0_684_3103)">
<path d="M20.2792 12.2712C20.1066 12.0616 19.8852 11.8976 19.6344 11.7936C19.3836 11.6895 19.1111 11.6487 18.8409 11.6746C17.3889 11.7893 15.9796 12.2201 14.7115 12.9367C13.4435 13.6532 12.3474 14.6383 11.5 15.8229V11.5921C12.6638 11.3943 13.7202 10.7916 14.4827 9.89041C15.2451 8.9892 15.6645 7.84751 15.6667 6.66705C15.6667 4.33955 14.0475 2.37372 12.4634 0.757885C11.9831 0.28859 11.3382 0.0258484 10.6667 0.0258484C9.99517 0.0258484 9.35032 0.28859 8.87002 0.757885C7.28585 2.37372 5.66669 4.33955 5.66669 6.66705C5.66888 7.84751 6.08824 8.9892 6.85068 9.89041C7.61312 10.7916 8.66957 11.3943 9.83335 11.5921V15.8229C8.98594 14.6383 7.88986 13.6532 6.62183 12.9367C5.3538 12.2201 3.94448 11.7893 2.49252 11.6746C2.22226 11.6488 1.94981 11.6897 1.69905 11.7938C1.44829 11.8978 1.22686 12.0617 1.05419 12.2712C0.882613 12.4749 0.763151 12.7173 0.706098 12.9775C0.649044 13.2376 0.656109 13.5077 0.726685 13.7646C2.42585 19.8796 10.3259 20.0004 10.6617 20.0004H10.6717C11.005 20.0004 18.9084 19.8796 20.6075 13.7646C20.6777 13.5076 20.6845 13.2375 20.6273 12.9774C20.5701 12.7173 20.4506 12.475 20.2792 12.2712V12.2712ZM7.33335 6.66705C7.33335 4.45539 10.0984 1.90122 10.115 1.88705C9.81085 2.66705 7.91085 7.41705 9.83335 7.50039C10.0544 7.50039 10.2663 7.41259 10.4226 7.25631C10.5789 7.10003 10.6667 6.88807 10.6667 6.66705C10.7296 5.18491 11.0856 3.72994 11.7142 2.38622C12.9067 3.66122 14 5.12872 14 6.66705C14 7.55111 13.6488 8.39895 13.0237 9.02407C12.3986 9.6492 11.5507 10.0004 10.6667 10.0004C9.78263 10.0004 8.93478 9.6492 8.30966 9.02407C7.68454 8.39895 7.33335 7.55111 7.33335 6.66705V6.66705ZM2.33835 13.3337C3.8398 13.4553 5.28253 13.9712 6.52073 14.8291C7.75892 15.687 8.7487 16.8565 9.39002 18.2196C7.30919 17.9312 3.33335 16.9171 2.33835 13.3337ZM11.9542 18.2179C12.6007 16.8587 13.5908 15.6917 14.8265 14.8323C16.0622 13.973 17.5008 13.451 19 13.3179C18.005 16.9029 14.0384 17.9262 11.9542 18.2179Z" fill="#454F5F"/>
</g>
<defs>
<clipPath id="clip0_684_3103">
<rect width="20" height="20" fill="white" transform="translate(0.666626)"/>
</clipPath>
</defs>
</svg>
