<svg width="24" height="25" viewBox="0 0 24 25" fill="none" xmlns="http://www.w3.org/2000/svg">
<g clip-path="url(#clip0_686_3432)">
<path d="M12 15.4918C10.3432 15.4918 9 16.835 9 18.4918V24.4918H15V18.4918C15 16.835 13.6568 15.4918 12 15.4918Z" fill="#2543EB"/>
<path d="M17 18.4922V24.4922H21C22.6568 24.4922 24 23.1491 24 21.4922V12.3712C24.0002 11.8517 23.7983 11.3525 23.437 10.9792L14.939 1.7922C13.4396 0.169853 10.9089 0.0702438 9.28655 1.56968C9.20949 1.64093 9.13523 1.71513 9.06403 1.7922L0.581016 10.9762C0.208734 11.351 -0.000140554 11.8579 7.09607e-08 12.3862V21.4922C7.09607e-08 23.1491 1.34316 24.4922 3 24.4922H6.99998V18.4922C7.01869 15.7654 9.22027 13.5387 11.8784 13.4745C14.6255 13.4082 16.9791 15.6729 17 18.4922Z" fill="#2543EB"/>
<path d="M12 15.4918C10.3432 15.4918 9 16.835 9 18.4918V24.4918H15V18.4918C15 16.835 13.6568 15.4918 12 15.4918Z" fill="#2543EB"/>
</g>
<defs>
<clipPath id="clip0_686_3432">
<rect width="24" height="24" fill="white" transform="translate(0 0.5)"/>
</clipPath>
</defs>
</svg>
