<svg width="21" height="20" viewBox="0 0 21 20" fill="none" xmlns="http://www.w3.org/2000/svg">
<g clip-path="url(#clip0_684_3130)">
<path d="M7.80409 20H3.66659C2.78253 20 1.93468 19.6488 1.30956 19.0237C0.684441 18.3986 0.333252 17.5507 0.333252 16.6667V12.5C0.333252 11.6159 0.684441 10.7681 1.30956 10.143C1.93468 9.51786 2.78253 9.16667 3.66659 9.16667H11.0474C11.4984 9.16688 11.9417 9.28351 12.3344 9.50527C12.7272 9.72703 13.056 10.0464 13.2891 10.4325L15.9699 7.48667C16.1917 7.24282 16.4593 7.04507 16.7575 6.90472C17.0557 6.76436 17.3787 6.68415 17.7079 6.66867C18.0371 6.65319 18.3662 6.70275 18.6762 6.81451C18.9863 6.92627 19.2713 7.09804 19.5149 7.32C20.0011 7.76661 20.2924 8.38624 20.3262 9.04552C20.36 9.70479 20.1336 10.351 19.6958 10.845L14.0291 17.2092C13.2467 18.0867 12.2876 18.7889 11.2149 19.2699C10.1421 19.7509 8.97975 19.9997 7.80409 20ZM3.66659 10.8333C3.22456 10.8333 2.80063 11.0089 2.48807 11.3215C2.17551 11.634 1.99992 12.058 1.99992 12.5V16.6667C1.99992 17.1087 2.17551 17.5326 2.48807 17.8452C2.80063 18.1577 3.22456 18.3333 3.66659 18.3333H7.80409C8.74402 18.333 9.67327 18.1339 10.5309 17.7494C11.3886 17.3648 12.1553 16.8033 12.7808 16.1017L18.4516 9.73667C18.5988 9.57083 18.675 9.35379 18.6638 9.13231C18.6526 8.91083 18.5548 8.70261 18.3916 8.5525C18.2256 8.40327 18.008 8.32465 17.7849 8.33333C17.6744 8.33801 17.5658 8.36466 17.4657 8.41174C17.3655 8.45881 17.2757 8.52536 17.2016 8.6075L13.5133 12.6667C13.3513 13.1148 13.0708 13.5106 12.7015 13.8117C12.3322 14.1129 11.8881 14.3082 11.4166 14.3767L7.11575 14.9917C6.89695 15.0231 6.67464 14.9662 6.49773 14.8337C6.32082 14.7012 6.2038 14.5038 6.17242 14.285C6.14103 14.0662 6.19786 13.8439 6.33038 13.667C6.46291 13.4901 6.66028 13.3731 6.87909 13.3417L11.1808 12.7275C11.4195 12.6941 11.6367 12.5714 11.7885 12.384C11.9403 12.1966 12.0152 11.9587 11.9983 11.7182C11.9814 11.4777 11.8738 11.2526 11.6973 11.0883C11.5208 10.9241 11.2885 10.8329 11.0474 10.8333H3.66659ZM9.49992 7.56167C9.12222 7.56268 8.75553 7.43447 8.46075 7.19833C7.03409 6.05333 5.33325 4.33333 5.33325 2.66667C5.31279 1.98197 5.56432 1.31704 6.03282 0.817303C6.50132 0.317569 7.14866 0.0237102 7.83325 0C8.45604 0.00242569 9.05356 0.246515 9.49992 0.680833C9.94627 0.246515 10.5438 0.00242569 11.1666 0C11.8512 0.0237102 12.4985 0.317569 12.967 0.817303C13.4355 1.31704 13.687 1.98197 13.6666 2.66667C13.6666 4.33333 11.9658 6.05333 10.5383 7.19917C10.2436 7.43483 9.87723 7.56273 9.49992 7.56167ZM7.83325 1.66667C7.59104 1.69097 7.36804 1.80935 7.21221 1.99635C7.05637 2.18336 6.98015 2.42405 6.99992 2.66667C6.99992 3.41667 7.95908 4.65833 9.50492 5.89917C11.0408 4.65833 11.9999 3.41667 11.9999 2.66667C12.0197 2.42405 11.9435 2.18336 11.7876 1.99635C11.6318 1.80935 11.4088 1.69097 11.1666 1.66667C10.9244 1.69097 10.7014 1.80935 10.5455 1.99635C10.3897 2.18336 10.3135 2.42405 10.3333 2.66667C10.3333 2.88768 10.2455 3.09964 10.0892 3.25592C9.93289 3.4122 9.72093 3.5 9.49992 3.5C9.2789 3.5 9.06694 3.4122 8.91066 3.25592C8.75438 3.09964 8.66658 2.88768 8.66658 2.66667C8.68636 2.42405 8.61013 2.18336 8.4543 1.99635C8.29846 1.80935 8.07546 1.69097 7.83325 1.66667Z" fill="#454F5F"/>
</g>
<defs>
<clipPath id="clip0_684_3130">
<rect width="20" height="20" fill="white" transform="translate(0.333252)"/>
</clipPath>
</defs>
</svg>
