<svg width="24" height="24" viewBox="0 0 24 24" fill="none" xmlns="http://www.w3.org/2000/svg">
<g clip-path="url(#clip0_686_3339)">
<path d="M12.0001 16.0001C12.4657 16.001 12.9251 15.8935 13.3421 15.6861L15.3421 14.6861C16.3615 14.1799 17.0045 13.1382 17.0001 12.0001V9.03309C17.0036 7.89595 16.3607 6.8556 15.3421 6.3501L13.3421 5.35012C12.497 4.93012 11.5041 4.93012 10.6591 5.35012L8.65905 6.3501C7.64008 6.85532 6.99672 7.89576 7.00005 9.03309V12.0001C6.9964 13.1375 7.63929 14.1782 8.65807 14.6841L10.6581 15.6841C11.0748 15.8922 11.5343 16.0004 12.0001 16.0001ZM9.00007 12.0001V9.03309C9.00166 8.93109 9.01886 8.82988 9.05107 8.73309L11.2311 9.82307C11.7152 10.065 12.285 10.065 12.7691 9.82307L14.9491 8.73309C14.9813 8.82988 14.9985 8.93109 15.0001 9.03309V12.0001C15.0017 12.3795 14.7872 12.7267 14.4471 12.8951L12.4471 13.8951C12.1651 14.0346 11.8341 14.0346 11.5521 13.8951L9.55211 12.8951C9.21241 12.7265 8.99829 12.3793 9.00007 12.0001ZM19.0001 22.0001H16.2911L19.778 18.7781C24.0739 14.4824 24.074 7.51757 19.7783 3.22171C15.4826 -1.07415 8.51782 -1.07419 4.22196 3.22148C-0.0739003 7.51715 -0.0739944 14.482 4.22172 18.7778C4.23115 18.7873 7.70908 22.0001 7.70908 22.0001H5.00008C4.4478 22.0001 4.0001 22.4478 4.0001 23.0001C4.0001 23.5523 4.4478 24 5.00008 24H19.0001C19.5524 24 20.0001 23.5523 20.0001 23.0001C20.0001 22.4478 19.5523 22.0001 19.0001 22.0001ZM5.63608 4.63607C9.14308 1.11332 14.8418 1.10057 18.3646 4.60757C21.8873 8.11457 21.9001 13.8133 18.3931 17.3361L14.4081 21.0171C13.048 22.299 10.9222 22.2916 9.5711 21L5.63608 17.364C2.12679 13.8471 2.12683 8.1531 5.63608 4.63607Z" fill="#94A3B8"/>
</g>
<defs>
<clipPath id="clip0_686_3339">
<rect width="24" height="24" fill="white"/>
</clipPath>
</defs>
</svg>
