<svg width="24" height="25" viewBox="0 0 24 25" fill="none" xmlns="http://www.w3.org/2000/svg">
<g clip-path="url(#clip0_686_3461)">
<path d="M19.071 17.7126C20.9477 15.8142 22.0002 13.2525 22.0002 10.5831C22.0002 7.91368 20.9477 5.35193 19.071 3.45358C18.1465 2.51781 17.0454 1.77485 15.8316 1.26778C14.6178 0.760707 13.3155 0.499603 12 0.499603C10.6846 0.499603 9.38219 0.760707 8.1684 1.26778C6.9546 1.77485 5.85353 2.51781 4.92901 3.45358C3.04795 5.3563 1.99515 7.92536 2.00002 10.6009C2.00489 13.2765 3.06704 15.8417 4.95501 17.7376L8.53901 21.0766C9.45687 21.9841 10.6946 22.4945 11.9853 22.4979C13.2761 22.5013 14.5164 21.9973 15.439 21.0946L19.071 17.7126ZM13.342 15.1486C12.925 15.3551 12.4659 15.4625 12.0005 15.4625C11.5351 15.4625 11.076 15.3551 10.659 15.1486L8.65901 14.1486C8.15943 13.9007 7.73924 13.518 7.44603 13.0436C7.15282 12.5692 6.99832 12.0222 7.00001 11.4646V8.49958C6.99804 7.94185 7.15231 7.39471 7.44534 6.92016C7.73838 6.44561 8.15847 6.06262 8.65801 5.81458L10.658 4.81458C11.0748 4.60739 11.534 4.49957 11.9995 4.49957C12.465 4.49957 12.9242 4.60739 13.341 4.81458L15.341 5.81458C15.8407 6.06248 16.261 6.44542 16.5542 6.91997C16.8475 7.39453 17.0019 7.94174 17 8.49958V11.4656C17.0018 12.0231 16.8474 12.5701 16.5544 13.0444C16.2614 13.5188 15.8414 13.9016 15.342 14.1496L13.342 15.1486ZM14.949 8.19358C14.9818 8.2923 14.999 8.39555 15 8.49958V11.4656C15.0008 11.6516 14.9494 11.834 14.8516 11.9922C14.7539 12.1505 14.6137 12.2781 14.447 12.3606L12.447 13.3606C12.3079 13.4296 12.1548 13.4656 11.9995 13.4656C11.8442 13.4656 11.6911 13.4296 11.552 13.3606L9.55201 12.3606C9.38537 12.2779 9.24529 12.15 9.1477 11.9916C9.05012 11.8332 8.99895 11.6506 9.00001 11.4646V8.49958C9.0016 8.39756 9.0188 8.29639 9.05101 8.19958L11.231 9.28958C11.4698 9.40893 11.7331 9.47106 12 9.47106C12.267 9.47106 12.5302 9.40893 12.769 9.28958L14.949 8.19358ZM20 23.4996C20 23.7648 19.8947 24.0191 19.7071 24.2067C19.5196 24.3942 19.2652 24.4996 19 24.4996H5.00001C4.73479 24.4996 4.48044 24.3942 4.2929 24.2067C4.10536 24.0191 4.00001 23.7648 4.00001 23.4996C4.00001 23.2344 4.10536 22.98 4.2929 22.7925C4.48044 22.6049 4.73479 22.4996 5.00001 22.4996H19C19.2652 22.4996 19.5196 22.6049 19.7071 22.7925C19.8947 22.98 20 23.2344 20 23.4996Z" fill="#2543EB"/>
</g>
<defs>
<clipPath id="clip0_686_3461">
<rect width="24" height="24" fill="white" transform="translate(0 0.5)"/>
</clipPath>
</defs>
</svg>
