<svg width="16" height="17" viewBox="0 0 16 17" fill="none" xmlns="http://www.w3.org/2000/svg">
<g clip-path="url(#clip0_674_2550)">
<path d="M8.00009 0.5C5.87906 0.502294 3.84556 1.34589 2.34577 2.84568C0.845972 4.34547 0.00238103 6.37897 8.69801e-05 8.5C-0.083913 14.882 7.43942 18.786 12.6001 15.0447C12.6742 14.9953 12.7378 14.9316 12.7869 14.8574C12.836 14.7831 12.8698 14.6997 12.8862 14.6121C12.9025 14.5246 12.9012 14.4346 12.8822 14.3476C12.8633 14.2606 12.827 14.1782 12.7757 14.1054C12.7244 14.0326 12.659 13.9709 12.5834 13.9238C12.5078 13.8767 12.4236 13.8452 12.3356 13.8312C12.2476 13.8172 12.1578 13.821 12.0713 13.8423C11.9848 13.8636 11.9035 13.9021 11.8321 13.9553C7.53342 17.0707 1.26675 13.8187 1.33342 8.5C1.69942 -0.344 14.3021 -0.342 14.6668 8.5V9.83333C14.6668 10.187 14.5263 10.5261 14.2762 10.7761C14.0262 11.0262 13.687 11.1667 13.3334 11.1667C12.9798 11.1667 12.6407 11.0262 12.3906 10.7761C12.1406 10.5261 12.0001 10.187 12.0001 9.83333V8.5C11.8321 3.214 4.16742 3.21467 4.00009 8.5C4.00785 9.31066 4.26106 10.1 4.72634 10.7638C5.19163 11.4277 5.84715 11.935 6.60652 12.2189C7.36589 12.5028 8.19346 12.55 8.98015 12.3542C9.76685 12.1583 10.4757 11.7287 11.0134 11.122C11.3026 11.6324 11.7521 12.0332 12.2921 12.2623C12.8322 12.4914 13.4328 12.536 14.0008 12.3893C14.5688 12.2425 15.0725 11.9125 15.4339 11.4504C15.7954 10.9883 15.9944 10.42 16.0001 9.83333V8.5C15.9978 6.37897 15.1542 4.34547 13.6544 2.84568C12.1546 1.34589 10.1211 0.502294 8.00009 0.5V0.5ZM8.00009 11.1667C7.29284 11.1667 6.61457 10.8857 6.11447 10.3856C5.61437 9.88552 5.33342 9.20724 5.33342 8.5C5.33342 7.79276 5.61437 7.11448 6.11447 6.61438C6.61457 6.11428 7.29284 5.83333 8.00009 5.83333C8.70733 5.83333 9.38561 6.11428 9.88571 6.61438C10.3858 7.11448 10.6668 7.79276 10.6668 8.5C10.6668 9.20724 10.3858 9.88552 9.88571 10.3856C9.38561 10.8857 8.70733 11.1667 8.00009 11.1667Z" fill="#94A3B8"/>
</g>
<defs>
<clipPath id="clip0_674_2550">
<rect width="16" height="16" fill="white" transform="translate(0 0.5)"/>
</clipPath>
</defs>
</svg>
