<svg width="16" height="16" viewBox="0 0 16 16" fill="none" xmlns="http://www.w3.org/2000/svg">
<g clip-path="url(#clip0_867_3459)">
<path d="M15.3333 7.33304C15.1565 7.33304 14.9869 7.2628 14.8619 7.13778C14.7369 7.01276 14.6666 6.84319 14.6666 6.66638C14.6652 5.25232 14.1029 3.89659 13.103 2.8967C12.1031 1.89681 10.7473 1.33445 9.33329 1.33304C9.15648 1.33304 8.98691 1.2628 8.86188 1.13778C8.73686 1.01276 8.66662 0.843186 8.66662 0.666375C8.66662 0.489564 8.73686 0.319995 8.86188 0.19497C8.98691 0.0699462 9.15648 -0.000291733 9.33329 -0.000291733C11.1008 0.00164933 12.7954 0.704652 14.0452 1.95447C15.295 3.2043 15.998 4.89886 16 6.66638C16 6.84319 15.9297 7.01276 15.8047 7.13778C15.6797 7.2628 15.5101 7.33304 15.3333 7.33304ZM13.3333 6.66638C13.3333 5.60551 12.9119 4.58809 12.1617 3.83795C11.4116 3.0878 10.3942 2.66637 9.33329 2.66637C9.15648 2.66637 8.98691 2.73661 8.86188 2.86164C8.73686 2.98666 8.66662 3.15623 8.66662 3.33304C8.66662 3.50985 8.73686 3.67942 8.86188 3.80445C8.98691 3.92947 9.15648 3.99971 9.33329 3.99971C10.0405 3.99971 10.7188 4.28066 11.2189 4.78076C11.719 5.28085 12 5.95913 12 6.66638C12 6.84319 12.0702 7.01276 12.1952 7.13778C12.3202 7.2628 12.4898 7.33304 12.6666 7.33304C12.8434 7.33304 13.013 7.2628 13.138 7.13778C13.2631 7.01276 13.3333 6.84319 13.3333 6.66638ZM14.7886 14.7757L15.3953 14.0764C15.7814 13.689 15.9983 13.1643 15.9983 12.6174C15.9983 12.0704 15.7814 11.5458 15.3953 11.1584C15.3746 11.1377 13.7706 9.90371 13.7706 9.90371C13.3857 9.53726 12.8743 9.33321 12.3428 9.33396C11.8113 9.3347 11.3006 9.54018 10.9166 9.90771L9.64595 10.9784C8.60874 10.5491 7.66654 9.91916 6.87348 9.12472C6.08041 8.33028 5.4521 7.387 5.02462 6.34904L6.09129 5.08238C6.4591 4.69849 6.66482 4.18763 6.66569 3.65598C6.66656 3.12433 6.46251 2.61279 6.09595 2.22771C6.09595 2.22771 4.86062 0.625708 4.83995 0.605042C4.45959 0.222207 3.94387 0.00438961 3.40424 -0.00134854C2.8646 -0.0070867 2.34437 0.199715 1.95595 0.574375L1.18929 1.24104C-3.34005 6.49571 6.41329 16.1737 11.8413 15.9997C12.3894 16.0029 12.9326 15.8962 13.4388 15.686C13.945 15.4758 14.404 15.1662 14.7886 14.7757V14.7757Z" fill="#2543EB" fill-opacity="0.75"/>
</g>
<defs>
<clipPath id="clip0_867_3459">
<rect width="16" height="16" fill="white"/>
</clipPath>
</defs>
</svg>
