<svg width="24" height="24" viewBox="0 0 24 24" fill="none" xmlns="http://www.w3.org/2000/svg">
<g clip-path="url(#clip0_682_2997)">
<path d="M23.1188 0.882014C22.7602 0.519141 22.3142 0.254869 21.8237 0.11473C21.3332 -0.0254085 20.8149 -0.0366769 20.3188 0.0820139L4.31877 3.45201C3.39734 3.57838 2.5295 3.95949 1.81297 4.55243C1.09644 5.14536 0.559679 5.92657 0.263141 6.80808C-0.0333971 7.68959 -0.0779367 8.63638 0.134538 9.54183C0.347013 10.4473 0.808063 11.2754 1.46577 11.933L3.18377 13.65C3.27675 13.743 3.35049 13.8534 3.40077 13.9748C3.45104 14.0963 3.47687 14.2265 3.47677 14.358V17.526C3.47897 17.9714 3.58151 18.4107 3.77677 18.811L3.76877 18.818L3.79477 18.844C4.08778 19.4331 4.56635 19.9096 5.15677 20.2L5.18277 20.226L5.18977 20.218C5.59013 20.4133 6.02934 20.5158 6.47477 20.518H9.64277C9.90782 20.5178 10.1621 20.6228 10.3498 20.81L12.0668 22.527C12.5273 22.9926 13.0754 23.3625 13.6795 23.6153C14.2837 23.8681 14.9319 23.9989 15.5868 24C16.1325 23.9993 16.6745 23.9102 17.1918 23.736C18.0652 23.4492 18.8411 22.924 19.432 22.2197C20.0229 21.5154 20.4052 20.66 20.5358 19.75L23.9108 3.71501C24.0356 3.21465 24.0283 2.69043 23.8894 2.19378C23.7506 1.69712 23.485 1.24508 23.1188 0.882014ZM4.59977 12.238L2.88077 10.521C2.48049 10.1304 2.19994 9.63366 2.07205 9.08917C1.94417 8.54468 1.97425 7.97501 2.15877 7.44701C2.33766 6.90534 2.66837 6.42644 3.11156 6.06728C3.55475 5.70811 4.09178 5.4838 4.65877 5.42101L20.4998 2.08601L5.47477 17.113V14.358C5.47628 13.9644 5.39973 13.5743 5.24954 13.2104C5.09935 12.8465 4.8785 12.516 4.59977 12.238ZM18.5708 19.408C18.494 19.9604 18.2648 20.4804 17.9089 20.9097C17.553 21.339 17.0844 21.6606 16.5559 21.8384C16.0274 22.0162 15.4597 22.0431 14.9167 21.9163C14.3737 21.7894 13.8768 21.5136 13.4818 21.12L11.7618 19.4C11.4841 19.1209 11.1539 18.8995 10.7902 18.7488C10.4265 18.5981 10.0365 18.521 9.64277 18.522H6.88777L21.9148 3.50001L18.5708 19.408Z" fill="white"/>
</g>
<defs>
<clipPath id="clip0_682_2997">
<rect width="24" height="24" fill="white"/>
</clipPath>
</defs>
</svg>
