<svg width="21" height="20" viewBox="0 0 21 20" fill="none" xmlns="http://www.w3.org/2000/svg">
<g clip-path="url(#clip0_682_2988)">
<path d="M20.4291 1.90408C20.2709 1.74642 20.0566 1.65791 19.8333 1.65791C19.6099 1.65791 19.3957 1.74642 19.2375 1.90408L15.2675 5.87407L15.0008 5.61324C14.2977 4.92653 13.3749 4.50998 12.3948 4.43696C11.4147 4.36394 10.4404 4.63914 9.64329 5.21407C8.49291 6.08157 7.21419 6.76423 5.85329 7.2374L4.12496 7.74407C3.56333 7.90893 3.0424 8.18945 2.59564 8.56762C2.14888 8.94578 1.78616 9.41322 1.53079 9.9399C1.27963 10.4594 1.13974 11.0257 1.12008 11.6024C1.10042 12.1792 1.20143 12.7536 1.41663 13.2891C2.23227 15.2914 3.63055 17.0025 5.43023 18.2007C7.2299 19.3989 9.34799 20.0289 11.51 20.0091H12.28C12.4522 20.0089 12.6204 19.956 12.7616 19.8574C14.2285 18.8999 15.4821 17.6502 16.4442 16.1865C17.4063 14.7227 18.0562 13.0762 18.3533 11.3499C18.4566 10.6898 18.4007 10.0146 18.19 9.38052C17.9794 8.74646 17.6202 8.17195 17.1425 7.7049L16.4758 7.05157L20.4316 3.09574C20.5889 2.93719 20.677 2.72275 20.6765 2.49939C20.6761 2.27603 20.5871 2.06197 20.4291 1.90408ZM12.0066 18.3207H11.5066C10.2753 18.3224 9.05564 18.0826 7.91663 17.6149L7.92579 17.6099C9.38321 16.8786 10.6309 15.789 11.5516 14.4432L11.9833 13.8091C12.109 13.6245 12.1563 13.3976 12.1148 13.1782C12.0732 12.9587 11.9462 12.7648 11.7616 12.6391C11.5771 12.5133 11.3501 12.466 11.1307 12.5076C10.9113 12.5491 10.7174 12.6762 10.5916 12.8607L10.16 13.4949C9.3993 14.6045 8.36934 15.5029 7.16663 16.1057L6.12413 16.6307C5.29006 16.0444 4.56212 15.3202 3.97163 14.4891C5.33744 14.0296 6.58354 13.2711 7.61913 12.2691C7.77892 12.1128 7.87009 11.8995 7.87259 11.676C7.87509 11.4525 7.78872 11.2372 7.63246 11.0774C7.4762 10.9176 7.26287 10.8264 7.03939 10.8239C6.81591 10.8214 6.60059 10.9078 6.44079 11.0641C5.5082 11.9677 4.36999 12.6312 3.12413 12.9974C3.07329 12.8849 3.01829 12.7749 2.97246 12.6591C2.8434 12.3421 2.78298 12.0014 2.79519 11.6594C2.8074 11.3174 2.89196 10.9818 3.04329 10.6749C3.1965 10.3597 3.41378 10.08 3.68125 9.85355C3.94872 9.62712 4.26049 9.45899 4.59663 9.3599L6.32413 8.85323C7.32659 8.53119 8.28549 8.08673 9.17913 7.5299L15.775 13.9566C14.8986 15.7011 13.604 17.2016 12.0066 18.3241V18.3207ZM16.69 11.0849C16.6263 11.4748 16.5403 11.8607 16.4325 12.2407L10.6233 6.58324C11.0495 6.27693 11.561 6.11197 12.0858 6.11157C12.735 6.11075 13.3586 6.3648 13.8225 6.81907L15.9633 8.9099C16.2491 9.18891 16.4641 9.53214 16.5905 9.91103C16.7169 10.2899 16.751 10.6935 16.69 11.0882V11.0849Z" fill="#454F5F"/>
</g>
<defs>
<clipPath id="clip0_682_2988">
<rect width="20" height="20" fill="white" transform="translate(0.666626)"/>
</clipPath>
</defs>
</svg>
