<svg width="20" height="20" viewBox="0 0 20 20" fill="none" xmlns="http://www.w3.org/2000/svg">
<g clip-path="url(#clip0_684_3083)">
<path d="M15.4842 1.7839L10.2634 0.0430669C10.0925 -0.0138673 9.90769 -0.0138673 9.73675 0.0430669L4.51592 1.7839C3.68584 2.05963 2.96376 2.58995 2.45229 3.29949C1.94081 4.00904 1.66595 4.86172 1.66675 5.7364V10.0006C1.66675 16.3031 9.33342 19.7839 9.66175 19.9289C9.76827 19.9762 9.88353 20.0007 10.0001 20.0007C10.1166 20.0007 10.2319 19.9762 10.3384 19.9289C10.6667 19.7839 18.3334 16.3031 18.3334 10.0006V5.7364C18.3342 4.86172 18.0594 4.00904 17.5479 3.29949C17.0364 2.58995 16.3143 2.05963 15.4842 1.7839ZM16.6667 10.0006C16.6667 14.5464 11.4009 17.5281 10.0001 18.2414C8.59758 17.5306 3.33342 14.5581 3.33342 10.0006V5.7364C3.33346 5.21163 3.49865 4.70018 3.80555 4.27452C4.11246 3.84886 4.54554 3.53056 5.04342 3.36473L10.0001 1.71223L14.9567 3.36473C15.4546 3.53056 15.8877 3.84886 16.1946 4.27452C16.5015 4.70018 16.6667 5.21163 16.6667 5.7364V10.0006Z" fill="#454F5F"/>
<path d="M12.7499 6.91695L9.25991 10.417L7.38991 8.46695C7.31486 8.3849 7.22415 8.31869 7.12313 8.27224C7.0221 8.22578 6.91279 8.20002 6.80166 8.19646C6.69052 8.1929 6.57979 8.21162 6.476 8.25152C6.3722 8.29141 6.27744 8.35168 6.1973 8.42876C6.11716 8.50584 6.05325 8.59819 6.00935 8.70035C5.96545 8.80251 5.94244 8.91243 5.94167 9.02362C5.9409 9.13482 5.9624 9.24504 6.00489 9.3478C6.04738 9.45056 6.11 9.54377 6.18908 9.62195L8.11074 11.622C8.25405 11.7768 8.42727 11.9009 8.61992 11.9868C8.81257 12.0728 9.02065 12.1187 9.23158 12.122H9.25908C9.46579 12.1226 9.67058 12.0823 9.86156 12.0031C10.0525 11.924 10.2259 11.8078 10.3716 11.6611L13.9316 8.10112C14.0093 8.02353 14.071 7.93138 14.1132 7.82994C14.1553 7.72851 14.1771 7.61976 14.1772 7.50992C14.1773 7.40007 14.1558 7.29128 14.1139 7.18975C14.0719 7.08823 14.0104 6.99595 13.9328 6.9182C13.8552 6.84044 13.7631 6.77873 13.6617 6.73659C13.5602 6.69445 13.4515 6.6727 13.3416 6.67258C13.2318 6.67247 13.123 6.69399 13.0215 6.73591C12.9199 6.77784 12.8277 6.83936 12.7499 6.91695Z" fill="#454F5F"/>
</g>
<defs>
<clipPath id="clip0_684_3083">
<rect width="20" height="20" fill="white"/>
</clipPath>
</defs>
</svg>
