<svg width="17" height="16" viewBox="0 0 17 16" fill="none" xmlns="http://www.w3.org/2000/svg">
<g clip-path="url(#clip0_870_3521)">
<path d="M10.6665 11.3332C10.6665 11.51 10.5962 11.6796 10.4712 11.8046C10.3462 11.9297 10.1766 11.9999 9.99981 11.9999H7.33314C7.15633 11.9999 6.98676 11.9297 6.86174 11.8046C6.73671 11.6796 6.66648 11.51 6.66648 11.3332C6.66648 11.1564 6.73671 10.9869 6.86174 10.8618C6.98676 10.7368 7.15633 10.6666 7.33314 10.6666H9.99981C10.1766 10.6666 10.3462 10.7368 10.4712 10.8618C10.5962 10.9869 10.6665 11.1564 10.6665 11.3332ZM10.4711 4.86191C10.3461 4.73693 10.1766 4.66672 9.99981 4.66672C9.82303 4.66672 9.65349 4.73693 9.52848 4.86191L8.66648 5.72391L7.80448 4.86191C7.74298 4.79824 7.66942 4.74745 7.58808 4.71251C7.50674 4.67757 7.41926 4.65918 7.33074 4.65841C7.24222 4.65764 7.15444 4.67451 7.07251 4.70803C6.99058 4.74155 6.91614 4.79105 6.85355 4.85365C6.79095 4.91624 6.74145 4.99068 6.70793 5.07261C6.67441 5.15454 6.65754 5.24233 6.65831 5.33085C6.65908 5.41936 6.67747 5.50684 6.71241 5.58818C6.74735 5.66952 6.79814 5.74308 6.86181 5.80458L7.72381 6.66658L6.86181 7.52857C6.79814 7.59007 6.74735 7.66364 6.71241 7.74497C6.67747 7.82631 6.65908 7.91379 6.65831 8.00231C6.65754 8.09083 6.67441 8.17861 6.70793 8.26054C6.74145 8.34247 6.79095 8.41691 6.85355 8.4795C6.91614 8.5421 6.99058 8.5916 7.07251 8.62512C7.15444 8.65864 7.24222 8.67551 7.33074 8.67474C7.41926 8.67397 7.50674 8.65558 7.58808 8.62064C7.66942 8.5857 7.74298 8.53491 7.80448 8.47124L8.66648 7.60924L9.52848 8.47124C9.65421 8.59268 9.82261 8.65987 9.99741 8.65836C10.1722 8.65684 10.3394 8.58672 10.463 8.46312C10.5866 8.33951 10.6567 8.17231 10.6583 7.99751C10.6598 7.82271 10.5926 7.65431 10.4711 7.52857L9.60914 6.66658L10.4711 5.80458C10.5961 5.67956 10.6663 5.51002 10.6663 5.33324C10.6663 5.15647 10.5961 4.98693 10.4711 4.86191V4.86191ZM15.3331 10.6666H12.6665C12.4897 10.6666 12.3201 10.7368 12.1951 10.8618C12.07 10.9869 11.9998 11.1564 11.9998 11.3332C11.9998 11.51 12.07 11.6796 12.1951 11.8046C12.3201 11.9297 12.4897 11.9999 12.6665 11.9999H15.3331C15.51 11.9999 15.6795 11.9297 15.8045 11.8046C15.9296 11.6796 15.9998 11.51 15.9998 11.3332C15.9998 11.1564 15.9296 10.9869 15.8045 10.8618C15.6795 10.7368 15.51 10.6666 15.3331 10.6666ZM14.9425 6.66658L15.8045 5.80458C15.8682 5.74308 15.9189 5.66952 15.9539 5.58818C15.9888 5.50684 16.0072 5.41936 16.008 5.33085C16.0087 5.24233 15.9919 5.15454 15.9584 5.07261C15.9248 4.99068 15.8753 4.91624 15.8127 4.85365C15.7501 4.79105 15.6757 4.74155 15.5938 4.70803C15.5118 4.67451 15.4241 4.65764 15.3355 4.65841C15.247 4.65918 15.1595 4.67757 15.0782 4.71251C14.9969 4.74745 14.9233 4.79824 14.8618 4.86191L13.9998 5.72391L13.1378 4.86191C13.0763 4.79824 13.0027 4.74745 12.9214 4.71251C12.8401 4.67757 12.7526 4.65918 12.6641 4.65841C12.5756 4.65764 12.4878 4.67451 12.4058 4.70803C12.3239 4.74155 12.2495 4.79105 12.1869 4.85365C12.1243 4.91624 12.0748 4.99068 12.0413 5.07261C12.0077 5.15454 11.9909 5.24233 11.9916 5.33085C11.9924 5.41936 12.0108 5.50684 12.0457 5.58818C12.0807 5.66952 12.1315 5.74308 12.1951 5.80458L13.0571 6.66658L12.1951 7.52857C12.1315 7.59007 12.0807 7.66364 12.0457 7.74497C12.0108 7.82631 11.9924 7.91379 11.9916 8.00231C11.9909 8.09083 12.0077 8.17861 12.0413 8.26054C12.0748 8.34247 12.1243 8.41691 12.1869 8.4795C12.2495 8.5421 12.3239 8.5916 12.4058 8.62512C12.4878 8.65864 12.5756 8.67551 12.6641 8.67474C12.7526 8.67397 12.8401 8.65558 12.9214 8.62064C13.0027 8.5857 13.0763 8.53491 13.1378 8.47124L13.9998 7.60924L14.8618 8.47124C14.9875 8.59268 15.1559 8.65987 15.3307 8.65836C15.5055 8.65684 15.6727 8.58672 15.7964 8.46312C15.92 8.33951 15.9901 8.17231 15.9916 7.99751C15.9931 7.82271 15.9259 7.65431 15.8045 7.52857L14.9425 6.66658ZM4.66648 10.6666H1.99981C1.823 10.6666 1.65343 10.7368 1.52841 10.8618C1.40338 10.9869 1.33314 11.1564 1.33314 11.3332C1.33314 11.51 1.40338 11.6796 1.52841 11.8046C1.65343 11.9297 1.823 11.9999 1.99981 11.9999H4.66648C4.84329 11.9999 5.01286 11.9297 5.13788 11.8046C5.2629 11.6796 5.33314 11.51 5.33314 11.3332C5.33314 11.1564 5.2629 10.9869 5.13788 10.8618C5.01286 10.7368 4.84329 10.6666 4.66648 10.6666ZM5.13781 4.86191C5.01279 4.73693 4.84325 4.66672 4.66648 4.66672C4.4897 4.66672 4.32016 4.73693 4.19514 4.86191L3.33314 5.72391L2.47114 4.86191C2.40965 4.79824 2.33608 4.74745 2.25475 4.71251C2.17341 4.67757 2.08593 4.65918 1.99741 4.65841C1.90889 4.65764 1.8211 4.67451 1.73917 4.70803C1.65724 4.74155 1.58281 4.79105 1.52021 4.85365C1.45762 4.91624 1.40812 4.99068 1.3746 5.07261C1.34107 5.15454 1.32421 5.24233 1.32498 5.33085C1.32575 5.41936 1.34414 5.50684 1.37908 5.58818C1.41401 5.66952 1.4648 5.74308 1.52848 5.80458L2.39048 6.66658L1.52848 7.52857C1.4648 7.59007 1.41401 7.66364 1.37908 7.74497C1.34414 7.82631 1.32575 7.91379 1.32498 8.00231C1.32421 8.09083 1.34107 8.17861 1.3746 8.26054C1.40812 8.34247 1.45762 8.41691 1.52021 8.4795C1.58281 8.5421 1.65724 8.5916 1.73917 8.62512C1.8211 8.65864 1.90889 8.67551 1.99741 8.67474C2.08593 8.67397 2.17341 8.65558 2.25475 8.62064C2.33608 8.5857 2.40965 8.53491 2.47114 8.47124L3.33314 7.60924L4.19514 8.47124C4.25664 8.53491 4.3302 8.5857 4.41154 8.62064C4.49288 8.65558 4.58036 8.67397 4.66888 8.67474C4.7574 8.67551 4.84518 8.65864 4.92711 8.62512C5.00904 8.5916 5.08348 8.5421 5.14607 8.4795C5.20867 8.41691 5.25817 8.34247 5.29169 8.26054C5.32521 8.17861 5.34208 8.09083 5.34131 8.00231C5.34054 7.91379 5.32215 7.82631 5.28721 7.74497C5.25227 7.66364 5.20148 7.59007 5.13781 7.52857L4.27581 6.66658L5.13781 5.80458C5.26279 5.67956 5.333 5.51002 5.333 5.33324C5.333 5.15647 5.26279 4.98693 5.13781 4.86191V4.86191Z" fill="#94A3B8"/>
</g>
<defs>
<clipPath id="clip0_870_3521">
<rect width="16" height="16" fill="white" transform="translate(0.666504)"/>
</clipPath>
</defs>
</svg>
