<svg width="21" height="20" viewBox="0 0 21 20" fill="none" xmlns="http://www.w3.org/2000/svg">
<g clip-path="url(#clip0_684_3095)">
<path d="M13.6666 5.83311L13.6474 4.85227C14.2066 4.66103 14.6797 4.27736 14.9823 3.76969C15.2849 3.26203 15.3973 2.66338 15.2995 2.08053C15.2017 1.49767 14.9001 0.968498 14.4484 0.587395C13.9967 0.206292 13.4243 -0.00196209 12.8333 -0.000225741H7.83325C7.24423 -0.00134184 6.67382 0.20604 6.22305 0.58519C5.77228 0.96434 5.47024 1.49079 5.37043 2.07129C5.27062 2.6518 5.37947 3.2489 5.67772 3.75683C5.97596 4.26477 6.44435 4.65076 6.99992 4.84644V5.83311C5.89526 5.83443 4.83622 6.27384 4.0551 7.05496C3.27399 7.83607 2.83458 8.89511 2.83325 9.99978V15.8331C2.83458 16.9378 3.27399 17.9968 4.0551 18.7779C4.83622 19.559 5.89526 19.9985 6.99992 19.9998H13.6666C14.7712 19.9985 15.8303 19.559 16.6114 18.7779C17.3925 17.9968 17.8319 16.9378 17.8333 15.8331V9.99978C17.8319 8.89511 17.3925 7.83607 16.6114 7.05496C15.8303 6.27384 14.7712 5.83443 13.6666 5.83311V5.83311ZM7.83325 1.66644H12.8333C13.0543 1.66644 13.2662 1.75424 13.4225 1.91052C13.5788 2.0668 13.6666 2.27876 13.6666 2.49977C13.6666 2.72079 13.5788 2.93275 13.4225 3.08903C13.2662 3.24531 13.0543 3.33311 12.8333 3.33311H7.83325C7.61224 3.33311 7.40028 3.24531 7.244 3.08903C7.08772 2.93275 6.99992 2.72079 6.99992 2.49977C6.99992 2.27876 7.08772 2.0668 7.244 1.91052C7.40028 1.75424 7.61224 1.66644 7.83325 1.66644V1.66644ZM16.1666 15.8331C16.1666 16.4962 15.9032 17.132 15.4344 17.6009C14.9655 18.0697 14.3296 18.3331 13.6666 18.3331H6.99992C6.33688 18.3331 5.70099 18.0697 5.23215 17.6009C4.76331 17.132 4.49992 16.4962 4.49992 15.8331V9.99978C4.49992 9.33673 4.76331 8.70085 5.23215 8.23201C5.70099 7.76317 6.33688 7.49978 6.99992 7.49978H7.83325C8.05427 7.49978 8.26623 7.41198 8.42251 7.2557C8.57879 7.09942 8.66659 6.88746 8.66659 6.66644V4.99977H11.9774L11.9999 6.67811C12.003 6.89709 12.0921 7.10607 12.2481 7.25984C12.404 7.4136 12.6142 7.4998 12.8333 7.49978H13.6666C14.3296 7.49978 14.9655 7.76317 15.4344 8.23201C15.9032 8.70085 16.1666 9.33673 16.1666 9.99978V15.8331ZM13.6666 12.4998C13.6666 12.7208 13.5788 12.9328 13.4225 13.089C13.2662 13.2453 13.0543 13.3331 12.8333 13.3331H11.1666V14.9998C11.1666 15.2208 11.0788 15.4328 10.9225 15.589C10.7662 15.7453 10.5543 15.8331 10.3333 15.8331C10.1122 15.8331 9.90028 15.7453 9.744 15.589C9.58772 15.4328 9.49992 15.2208 9.49992 14.9998V13.3331H7.83325C7.61224 13.3331 7.40028 13.2453 7.244 13.089C7.08772 12.9328 6.99992 12.7208 6.99992 12.4998C6.99992 12.2788 7.08772 12.0668 7.244 11.9105C7.40028 11.7542 7.61224 11.6664 7.83325 11.6664H9.49992V9.99978C9.49992 9.77876 9.58772 9.5668 9.744 9.41052C9.90028 9.25424 10.1122 9.16644 10.3333 9.16644C10.5543 9.16644 10.7662 9.25424 10.9225 9.41052C11.0788 9.5668 11.1666 9.77876 11.1666 9.99978V11.6664H12.8333C13.0543 11.6664 13.2662 11.7542 13.4225 11.9105C13.5788 12.0668 13.6666 12.2788 13.6666 12.4998Z" fill="#454F5F"/>
</g>
<defs>
<clipPath id="clip0_684_3095">
<rect width="20" height="20" fill="white" transform="translate(0.333252)"/>
</clipPath>
</defs>
</svg>
