<svg width="16" height="17" viewBox="0 0 16 17" fill="none" xmlns="http://www.w3.org/2000/svg">
<g clip-path="url(#clip0_867_3427)">
<path d="M7.99995 0.52832C6.23591 0.530261 4.54467 1.23184 3.29724 2.47914C2.04981 3.72644 1.34806 5.41762 1.34595 7.18165C1.34595 8.89499 2.67261 11.5763 5.28928 15.151C5.60079 15.5777 6.00865 15.9249 6.47968 16.1643C6.95071 16.4036 7.4716 16.5283 7.99995 16.5283C8.5283 16.5283 9.04918 16.4036 9.52021 16.1643C9.99124 15.9249 10.3991 15.5777 10.7106 15.151C13.3273 11.5763 14.6539 8.89499 14.6539 7.18165C14.6518 5.41762 13.9501 3.72644 12.7027 2.47914C11.4552 1.23184 9.76399 0.530261 7.99995 0.52832V0.52832ZM7.99995 9.83365C7.47253 9.83365 6.95696 9.67726 6.51843 9.38424C6.0799 9.09122 5.7381 8.67475 5.53627 8.18748C5.33443 7.70021 5.28163 7.16403 5.38452 6.64675C5.48741 6.12946 5.74139 5.65431 6.11433 5.28137C6.48727 4.90843 6.96242 4.65445 7.47971 4.55156C7.99699 4.44867 8.53317 4.50148 9.02044 4.70331C9.50771 4.90514 9.92418 5.24694 10.2172 5.68547C10.5102 6.124 10.6666 6.63957 10.6666 7.16699C10.6666 7.87423 10.3857 8.55251 9.88557 9.05261C9.38547 9.5527 8.70719 9.83365 7.99995 9.83365Z" fill="white"/>
</g>
<defs>
<clipPath id="clip0_867_3427">
<rect width="16" height="16" fill="white" transform="translate(0 0.5)"/>
</clipPath>
</defs>
</svg>
