<svg width="16" height="17" viewBox="0 0 16 17" fill="none" xmlns="http://www.w3.org/2000/svg">
<g clip-path="url(#clip0_674_2553)">
<path d="M5.00337 16.4998C3.79654 16.499 2.63071 16.0618 1.72101 15.2687C0.811305 14.4757 0.219127 13.3804 0.0537445 12.185C-0.111638 10.9895 0.160937 9.77459 0.821171 8.76437C1.4814 7.75415 2.48474 7.01682 3.64604 6.68844C4.49012 6.44672 5.38357 6.43567 6.23337 6.65643L11.5054 1.38577C11.7852 1.10396 12.1183 0.880525 12.4852 0.728433C12.8521 0.57634 13.2455 0.498616 13.6427 0.499768C14.2677 0.500298 14.867 0.748829 15.309 1.1908C15.751 1.63277 15.9995 2.23206 16 2.8571C16.0011 3.25429 15.9234 3.64775 15.7714 4.01473C15.6194 4.3817 15.3962 4.71492 15.1147 4.9951L14.6667 5.4431C14.416 5.69206 14.0773 5.83219 13.724 5.8331H12.6667V6.49977C12.6667 6.85339 12.5262 7.19253 12.2762 7.44258C12.0261 7.69263 11.687 7.8331 11.3334 7.8331H10.6667V8.89044C10.6672 9.06559 10.6329 9.2391 10.5658 9.40092C10.4988 9.56273 10.4003 9.70963 10.276 9.8331L9.8427 10.2664C10.0647 11.1158 10.0539 12.0093 9.81137 12.8531C9.53851 13.8144 8.98491 14.6724 8.22146 15.3172C7.45801 15.962 6.51947 16.3643 5.52604 16.4724C5.3524 16.4905 5.17794 16.4996 5.00337 16.4998ZM5.00337 7.8331C4.3208 7.83244 3.6516 8.02232 3.07109 8.38136C2.49059 8.7404 2.02182 9.25435 1.71757 9.86536C1.41332 10.4764 1.28565 11.1602 1.34895 11.8398C1.41225 12.5194 1.66399 13.1679 2.07585 13.7122C2.4877 14.2565 3.04331 14.6751 3.68014 14.9207C4.31697 15.1664 5.00972 15.2294 5.68043 15.1027C6.35113 14.976 6.97316 14.6646 7.47649 14.2036C7.97981 13.7425 8.34446 13.1501 8.52937 12.4931C8.73737 11.7708 8.71406 11.0015 8.4627 10.2931C8.42168 10.1748 8.41481 10.0473 8.44287 9.9253C8.47093 9.80327 8.53279 9.69161 8.62137 9.6031L9.33337 8.89044V7.8331C9.33337 7.47948 9.47385 7.14034 9.72389 6.89029C9.97394 6.64024 10.3131 6.49977 10.6667 6.49977H11.3334V5.8331C11.3334 5.47948 11.4738 5.14034 11.7239 4.89029C11.9739 4.64024 12.3131 4.49977 12.6667 4.49977H13.724L14.172 4.05177C14.3293 3.8952 14.4541 3.70901 14.539 3.50395C14.6239 3.2989 14.6673 3.07904 14.6667 2.8571C14.6665 2.58569 14.5587 2.32543 14.3668 2.13345C14.175 1.94147 13.9148 1.83345 13.6434 1.8331C13.4213 1.83256 13.2013 1.87605 12.9961 1.96108C12.7909 2.0461 12.6046 2.17096 12.448 2.32843L6.89404 7.88177C6.8054 7.97036 6.69359 8.03217 6.57143 8.06011C6.44927 8.08806 6.32171 8.08101 6.20337 8.03977C5.81675 7.90364 5.40992 7.83377 5.00004 7.8331H5.00337ZM3.33337 12.4998C3.33337 12.6316 3.37247 12.7605 3.44572 12.8701C3.51898 12.9798 3.6231 13.0652 3.74491 13.1157C3.86673 13.1661 4.00078 13.1793 4.1301 13.1536C4.25942 13.1279 4.37821 13.0644 4.47144 12.9712C4.56468 12.8779 4.62817 12.7591 4.65389 12.6298C4.67962 12.5005 4.66641 12.3665 4.61596 12.2446C4.5655 12.1228 4.48005 12.0187 4.37042 11.9455C4.26078 11.8722 4.13189 11.8331 4.00004 11.8331C3.82323 11.8331 3.65366 11.9033 3.52863 12.0284C3.40361 12.1534 3.33337 12.323 3.33337 12.4998Z" fill="#94A3B8"/>
</g>
<defs>
<clipPath id="clip0_674_2553">
<rect width="16" height="16" fill="white" transform="translate(0 0.5)"/>
</clipPath>
</defs>
</svg>
