<svg width="20" height="20" viewBox="0 0 20 20" fill="none" xmlns="http://www.w3.org/2000/svg">
<g clip-path="url(#clip0_684_3112)">
<path d="M8.33917 2.5L6.66667 2.48833C6.66358 1.82732 6.39883 1.19442 5.93032 0.728104C5.46181 0.261783 4.82769 -7.19772e-06 4.16667 1.48424e-10L2.5 1.48425e-10C1.83696 1.48425e-10 1.20107 0.263392 0.732233 0.732233C0.263392 1.20107 0 1.83696 0 2.5L0 4.16667C-1.80219e-06 4.8287 0.262589 5.4637 0.730169 5.93237C1.19775 6.40105 1.83214 6.66512 2.49417 6.66667L2.4825 8.3275C2.48173 8.43701 2.50255 8.54559 2.54378 8.64704C2.585 8.7485 2.64581 8.84083 2.72274 8.91876C2.79967 8.9967 2.89121 9.05871 2.99212 9.10124C3.09302 9.14378 3.20133 9.16601 3.31083 9.16667H3.31583C3.53584 9.16667 3.74692 9.07968 3.90304 8.92466C4.05915 8.76963 4.14763 8.55917 4.14917 8.33917L4.16083 6.66667H4.16667C4.82971 6.66667 5.46559 6.40328 5.93443 5.93443C6.40327 5.46559 6.66667 4.82971 6.66667 4.16667V4.155L8.3275 4.16667H8.33333C8.44277 4.16705 8.55121 4.14587 8.65246 4.10435C8.75371 4.06282 8.84579 4.00176 8.92344 3.92465C9.0011 3.84754 9.0628 3.75589 9.10503 3.65493C9.14727 3.55397 9.1692 3.44569 9.16958 3.33625C9.16997 3.22682 9.14879 3.11838 9.10727 3.01713C9.06574 2.91587 9.00468 2.82379 8.92757 2.74614C8.85046 2.66849 8.75881 2.60678 8.65785 2.56455C8.55689 2.52232 8.4486 2.50038 8.33917 2.5ZM5 4.16667C5 4.38768 4.9122 4.59964 4.75592 4.75592C4.59964 4.9122 4.38768 5 4.16667 5H2.5C2.27899 5 2.06702 4.9122 1.91074 4.75592C1.75446 4.59964 1.66667 4.38768 1.66667 4.16667V2.5C1.66667 2.27899 1.75446 2.06702 1.91074 1.91074C2.06702 1.75446 2.27899 1.66667 2.5 1.66667H4.16667C4.38768 1.66667 4.59964 1.75446 4.75592 1.91074C4.9122 2.06702 5 2.27899 5 2.5V4.16667Z" fill="#454F5F"/>
<path d="M17.4998 -7.62939e-06H15.8331C15.1711 -9.43159e-06 14.5361 0.262582 14.0674 0.730162C13.5987 1.19774 13.3347 1.83213 13.3331 2.49416L11.6715 2.48249H11.6665C11.4454 2.48172 11.2332 2.56877 11.0763 2.72451C10.9195 2.88024 10.831 3.0919 10.8302 3.31291C10.8294 3.53392 10.9165 3.74619 11.0722 3.90302C11.228 4.05985 11.4396 4.14839 11.6606 4.14916L13.3331 4.16083V4.16666C13.3331 4.8297 13.5965 5.46559 14.0654 5.93443C14.5342 6.40327 15.1701 6.66666 15.8331 6.66666H15.8448L15.8331 8.32749C15.8324 8.43693 15.8531 8.54544 15.8943 8.64684C15.9355 8.74824 15.9962 8.84054 16.0731 8.91846C16.1499 8.99639 16.2413 9.05841 16.3422 9.101C16.443 9.14358 16.5512 9.1659 16.6606 9.16666H16.6665C16.8865 9.16667 17.0975 9.07967 17.2537 8.92465C17.4098 8.76963 17.4982 8.55916 17.4998 8.33916L17.5115 6.66666C18.1725 6.66357 18.8054 6.39882 19.2717 5.93031C19.738 5.46181 19.9998 4.82768 19.9998 4.16666V2.49999C19.9998 1.83695 19.7364 1.20107 19.2676 0.732225C18.7987 0.263384 18.1628 -7.62939e-06 17.4998 -7.62939e-06V-7.62939e-06ZM18.3331 4.16666C18.3331 4.38767 18.2453 4.59963 18.089 4.75591C17.9328 4.9122 17.7208 4.99999 17.4998 4.99999H15.8331C15.6121 4.99999 15.4001 4.9122 15.2439 4.75591C15.0876 4.59963 14.9998 4.38767 14.9998 4.16666V2.49999C14.9998 2.27898 15.0876 2.06702 15.2439 1.91074C15.4001 1.75446 15.6121 1.66666 15.8331 1.66666H17.4998C17.7208 1.66666 17.9328 1.75446 18.089 1.91074C18.2453 2.06702 18.3331 2.27898 18.3331 2.49999V4.16666Z" fill="#454F5F"/>
<path d="M17.5056 13.3328L17.5173 11.6712C17.5179 11.5617 17.497 11.4532 17.4558 11.3519C17.4145 11.2505 17.3537 11.1583 17.2768 11.0804C17.1998 11.0026 17.1083 10.9407 17.0075 10.8982C16.9066 10.8557 16.7984 10.8335 16.689 10.8328H16.684C16.4639 10.8328 16.2529 10.9198 16.0968 11.0748C15.9406 11.2299 15.8522 11.4403 15.8506 11.6603L15.839 13.3328H15.8331C15.1701 13.3328 14.5342 13.5962 14.0654 14.0651C13.5965 14.5339 13.3331 15.1698 13.3331 15.8328V15.8445L11.6723 15.8328H11.6665C11.4454 15.832 11.2332 15.9191 11.0763 16.0748C10.9195 16.2306 10.831 16.4422 10.8302 16.6632C10.8294 16.8842 10.9165 17.0965 11.0722 17.2533C11.228 17.4102 11.4396 17.4987 11.6606 17.4995L13.3331 17.5111C13.3362 18.1722 13.601 18.8051 14.0695 19.2714C14.538 19.7377 15.1721 19.9995 15.8331 19.9995H17.4998C18.1628 19.9995 18.7987 19.7361 19.2676 19.2672C19.7364 18.7984 19.9998 18.1625 19.9998 17.4995V15.8328C19.9998 15.1708 19.7372 14.5358 19.2696 14.0671C18.802 13.5984 18.1677 13.3344 17.5056 13.3328ZM18.3331 17.4995C18.3331 17.7205 18.2453 17.9325 18.089 18.0887C17.9328 18.245 17.7208 18.3328 17.4998 18.3328H15.8331C15.6121 18.3328 15.4001 18.245 15.2439 18.0887C15.0876 17.9325 14.9998 17.7205 14.9998 17.4995V15.8328C14.9998 15.6118 15.0876 15.3998 15.2439 15.2436C15.4001 15.0873 15.6121 14.9995 15.8331 14.9995H17.4998C17.7208 14.9995 17.9328 15.0873 18.089 15.2436C18.2453 15.3998 18.3331 15.6118 18.3331 15.8328V17.4995Z" fill="#454F5F"/>
<path d="M8.33917 15.8503L6.66667 15.8387V15.8328C6.66667 15.1698 6.40327 14.5339 5.93443 14.0651C5.46559 13.5962 4.82971 13.3328 4.16667 13.3328H4.155L4.16667 11.672C4.16744 11.5626 4.14664 11.454 4.10547 11.3526C4.0643 11.2512 4.00356 11.1589 3.92672 11.081C3.84988 11.0031 3.75844 10.9411 3.65763 10.8985C3.55682 10.8559 3.4486 10.8336 3.33917 10.8328H3.33333C3.11333 10.8328 2.90224 10.9198 2.74613 11.0748C2.59002 11.2299 2.50154 11.4403 2.5 11.6603L2.48833 13.3328C1.82732 13.3359 1.19442 13.6007 0.728103 14.0692C0.261783 14.5377 -7.19772e-06 15.1718 1.48424e-10 15.8328L1.48425e-10 17.4995C1.48425e-10 18.1625 0.263392 18.7984 0.732233 19.2672C1.20107 19.7361 1.83696 19.9995 2.5 19.9995H4.16667C4.8287 19.9995 5.4637 19.7369 5.93237 19.2693C6.40105 18.8017 6.66512 18.1673 6.66667 17.5053L8.32833 17.517H8.33333C8.55435 17.5178 8.76662 17.4307 8.92344 17.275C9.08027 17.1192 9.16881 16.9076 9.16958 16.6866C9.17036 16.4656 9.0833 16.2533 8.92757 16.0965C8.77183 15.9396 8.56018 15.8511 8.33917 15.8503ZM5 17.4995C5 17.7205 4.9122 17.9325 4.75592 18.0887C4.59964 18.245 4.38768 18.3328 4.16667 18.3328H2.5C2.27899 18.3328 2.06702 18.245 1.91074 18.0887C1.75446 17.9325 1.66667 17.7205 1.66667 17.4995V15.8328C1.66667 15.6118 1.75446 15.3998 1.91074 15.2436C2.06702 15.0873 2.27899 14.9995 2.5 14.9995H4.16667C4.38768 14.9995 4.59964 15.0873 4.75592 15.2436C4.9122 15.3998 5 15.6118 5 15.8328V17.4995Z" fill="#454F5F"/>
</g>
<defs>
<clipPath id="clip0_684_3112">
<rect width="20" height="20" fill="white"/>
</clipPath>
</defs>
</svg>
