<svg width="16" height="17" viewBox="0 0 16 17" fill="none" xmlns="http://www.w3.org/2000/svg">
<g clip-path="url(#clip0_798_3346)">
<path d="M4.66667 0.5H2.66667C1.95942 0.5 1.28115 0.780952 0.781049 1.28105C0.280952 1.78115 0 2.45942 0 3.16667L0 5.16667C0 5.87391 0.280952 6.55219 0.781049 7.05229C1.28115 7.55238 1.95942 7.83333 2.66667 7.83333H4.66667C5.37391 7.83333 6.05219 7.55238 6.55229 7.05229C7.05238 6.55219 7.33333 5.87391 7.33333 5.16667V3.16667C7.33333 2.45942 7.05238 1.78115 6.55229 1.28105C6.05219 0.780952 5.37391 0.5 4.66667 0.5V0.5ZM6 5.16667C6 5.52029 5.85952 5.85943 5.60948 6.10948C5.35943 6.35952 5.02029 6.5 4.66667 6.5H2.66667C2.31304 6.5 1.97391 6.35952 1.72386 6.10948C1.47381 5.85943 1.33333 5.52029 1.33333 5.16667V3.16667C1.33333 2.81304 1.47381 2.47391 1.72386 2.22386C1.97391 1.97381 2.31304 1.83333 2.66667 1.83333H4.66667C5.02029 1.83333 5.35943 1.97381 5.60948 2.22386C5.85952 2.47391 6 2.81304 6 3.16667V5.16667Z" fill="#94A3B8"/>
<path d="M4.66667 9.16666H2.66667C1.95942 9.16666 1.28115 9.44761 0.781049 9.94771C0.280952 10.4478 0 11.1261 0 11.8333L0 13.8333C0 14.5406 0.280952 15.2189 0.781049 15.7189C1.28115 16.219 1.95942 16.5 2.66667 16.5H4.66667C5.37391 16.5 6.05219 16.219 6.55229 15.7189C7.05238 15.2189 7.33333 14.5406 7.33333 13.8333V11.8333C7.33333 11.1261 7.05238 10.4478 6.55229 9.94771C6.05219 9.44761 5.37391 9.16666 4.66667 9.16666ZM6 13.8333C6 14.187 5.85952 14.5261 5.60948 14.7761C5.35943 15.0262 5.02029 15.1667 4.66667 15.1667H2.66667C2.31304 15.1667 1.97391 15.0262 1.72386 14.7761C1.47381 14.5261 1.33333 14.187 1.33333 13.8333V11.8333C1.33333 11.4797 1.47381 11.1406 1.72386 10.8905C1.97391 10.6405 2.31304 10.5 2.66667 10.5H4.66667C5.02029 10.5 5.35943 10.6405 5.60948 10.8905C5.85952 11.1406 6 11.4797 6 11.8333V13.8333Z" fill="#94A3B8"/>
<path d="M14.862 13.1994L13.3334 14.726V2.25534L14.862 3.78201C14.924 3.84391 14.9975 3.893 15.0784 3.92648C15.1593 3.95996 15.246 3.97718 15.3336 3.97715C15.4212 3.97712 15.5079 3.95984 15.5888 3.9263C15.6697 3.89276 15.7431 3.84362 15.805 3.78168C15.8669 3.71974 15.916 3.64621 15.9495 3.5653C15.983 3.48439 16.0002 3.39767 16.0002 3.31011C16.0001 3.22254 15.9829 3.13584 15.9493 3.05495C15.9158 2.97406 15.8667 2.90057 15.8047 2.83868L14.08 1.11668C13.705 0.742141 13.1967 0.531769 12.6667 0.531769C12.1367 0.531769 11.6284 0.742141 11.2534 1.11668L9.52872 2.83868C9.46678 2.90057 9.41764 2.97406 9.3841 3.05495C9.35056 3.13584 9.33328 3.22254 9.33325 3.31011C9.33322 3.39767 9.35044 3.48439 9.38392 3.5653C9.4174 3.64621 9.46649 3.71974 9.52839 3.78168C9.59028 3.84362 9.66377 3.89276 9.74466 3.9263C9.82555 3.95984 9.91225 3.97712 9.99982 3.97715C10.0874 3.97718 10.1741 3.95996 10.255 3.92648C10.3359 3.893 10.4094 3.84391 10.4714 3.78201L12 2.25534V14.726L10.4714 13.1994C10.4094 13.1375 10.3359 13.0884 10.255 13.0549C10.1741 13.0214 10.0874 13.0042 9.99982 13.0042C9.91225 13.0042 9.82555 13.0215 9.74466 13.0551C9.66377 13.0886 9.59028 13.1377 9.52839 13.1997C9.46649 13.2616 9.4174 13.3351 9.38392 13.4161C9.35044 13.497 9.33322 13.5837 9.33325 13.6713C9.33328 13.7588 9.35056 13.8455 9.3841 13.9264C9.41764 14.0073 9.46678 14.0808 9.52872 14.1427L11.2534 15.8647C11.6284 16.2392 12.1367 16.4496 12.6667 16.4496C13.1967 16.4496 13.705 16.2392 14.08 15.8647L15.8047 14.1427C15.8667 14.0808 15.9158 14.0073 15.9493 13.9264C15.9829 13.8455 16.0001 13.7588 16.0002 13.6713C16.0002 13.5837 15.983 13.497 15.9495 13.4161C15.916 13.3351 15.8669 13.2616 15.805 13.1997C15.7431 13.1377 15.6697 13.0886 15.5888 13.0551C15.5079 13.0215 15.4212 13.0042 15.3336 13.0042C15.246 13.0042 15.1593 13.0214 15.0784 13.0549C14.9975 13.0884 14.924 13.1375 14.862 13.1994Z" fill="#94A3B8"/>
</g>
<defs>
<clipPath id="clip0_798_3346">
<rect width="16" height="16" fill="white" transform="translate(0 0.5)"/>
</clipPath>
</defs>
</svg>
