<svg width="17" height="16" viewBox="0 0 17 16" fill="none" xmlns="http://www.w3.org/2000/svg">
<g clip-path="url(#clip0_867_3430)">
<path d="M8.33337 7.99994C9.1245 7.99994 9.89786 7.76534 10.5557 7.32582C11.2135 6.88629 11.7261 6.26158 12.0289 5.53067C12.3316 4.79977 12.4109 3.9955 12.2565 3.21958C12.1022 2.44366 11.7212 1.73092 11.1618 1.17151C10.6024 0.612104 9.88966 0.231141 9.11374 0.0767996C8.33781 -0.0775412 7.53355 0.00167211 6.80264 0.304423C6.07174 0.607173 5.44702 1.11986 5.0075 1.77766C4.56797 2.43546 4.33337 3.20882 4.33337 3.99994C4.33443 5.06048 4.7562 6.07728 5.50612 6.8272C6.25603 7.57711 7.27283 7.99888 8.33337 7.99994ZM8.33337 1.33327C8.86079 1.33327 9.37636 1.48967 9.8149 1.78269C10.2534 2.07571 10.5952 2.49218 10.7971 2.97945C10.9989 3.46672 11.0517 4.0029 10.9488 4.52018C10.8459 5.03746 10.5919 5.51262 10.219 5.88556C9.84605 6.2585 9.3709 6.51247 8.85362 6.61537C8.33633 6.71826 7.80015 6.66545 7.31289 6.46362C6.82562 6.26179 6.40914 5.91999 6.11612 5.48146C5.82311 5.04293 5.66671 4.52736 5.66671 3.99994C5.66671 3.2927 5.94766 2.61442 6.44776 2.11432C6.94785 1.61423 7.62613 1.33327 8.33337 1.33327V1.33327Z" fill="#94A3B8"/>
<path d="M8.33337 9.33374C6.74262 9.3355 5.21752 9.96821 4.09268 11.093C2.96785 12.2179 2.33514 13.743 2.33337 15.3337C2.33337 15.5106 2.40361 15.6801 2.52864 15.8051C2.65366 15.9302 2.82323 16.0004 3.00004 16.0004C3.17685 16.0004 3.34642 15.9302 3.47145 15.8051C3.59647 15.6801 3.66671 15.5106 3.66671 15.3337C3.66671 14.0961 4.15837 12.9091 5.03354 12.0339C5.90871 11.1587 7.0957 10.6671 8.33337 10.6671C9.57105 10.6671 10.758 11.1587 11.6332 12.0339C12.5084 12.9091 13 14.0961 13 15.3337C13 15.5106 13.0703 15.6801 13.1953 15.8051C13.3203 15.9302 13.4899 16.0004 13.6667 16.0004C13.8435 16.0004 14.0131 15.9302 14.1381 15.8051C14.2631 15.6801 14.3334 15.5106 14.3334 15.3337C14.3316 13.743 13.6989 12.2179 12.5741 11.093C11.4492 9.96821 9.92413 9.3355 8.33337 9.33374V9.33374Z" fill="#94A3B8"/>
</g>
<defs>
<clipPath id="clip0_867_3430">
<rect width="16" height="16" fill="white" transform="translate(0.333374)"/>
</clipPath>
</defs>
</svg>
