<svg width="25" height="24" viewBox="0 0 25 24" fill="none" xmlns="http://www.w3.org/2000/svg">
<g clip-path="url(#clip0_131_514)">
<path d="M16.25 9V7H8.25V9C6.9244 9.00159 5.65356 9.52888 4.71622 10.4662C3.77888 11.4036 3.25159 12.6744 3.25 14V19C3.25159 20.3256 3.77888 21.5964 4.71622 22.5338C5.65356 23.4711 6.9244 23.9984 8.25 24H16.25C17.5756 23.9984 18.8464 23.4711 19.7838 22.5338C20.7211 21.5964 21.2484 20.3256 21.25 19V14C21.2484 12.6744 20.7211 11.4036 19.7838 10.4662C18.8464 9.52888 17.5756 9.00159 16.25 9ZM15.25 17H13.25V19C13.25 19.2652 13.1446 19.5196 12.9571 19.7071C12.7696 19.8946 12.5152 20 12.25 20C11.9848 20 11.7304 19.8946 11.5429 19.7071C11.3554 19.5196 11.25 19.2652 11.25 19V17H9.25C8.98478 17 8.73043 16.8946 8.54289 16.7071C8.35536 16.5196 8.25 16.2652 8.25 16C8.25 15.7348 8.35536 15.4804 8.54289 15.2929C8.73043 15.1054 8.98478 15 9.25 15H11.25V13C11.25 12.7348 11.3554 12.4804 11.5429 12.2929C11.7304 12.1054 11.9848 12 12.25 12C12.5152 12 12.7696 12.1054 12.9571 12.2929C13.1446 12.4804 13.25 12.7348 13.25 13V15H15.25C15.5152 15 15.7696 15.1054 15.9571 15.2929C16.1446 15.4804 16.25 15.7348 16.25 16C16.25 16.2652 16.1446 16.5196 15.9571 16.7071C15.7696 16.8946 15.5152 17 15.25 17ZM15.75 5H8.75C8.08696 5 7.45107 4.73661 6.98223 4.26777C6.51339 3.79893 6.25 3.16304 6.25 2.5C6.25 1.83696 6.51339 1.20107 6.98223 0.732233C7.45107 0.263392 8.08696 0 8.75 0L15.75 0C16.413 0 17.0489 0.263392 17.5178 0.732233C17.9866 1.20107 18.25 1.83696 18.25 2.5C18.25 3.16304 17.9866 3.79893 17.5178 4.26777C17.0489 4.73661 16.413 5 15.75 5Z" fill="#FEC391"/>
</g>
<defs>
<clipPath id="clip0_131_514">
<rect width="24" height="24" fill="white" transform="translate(0.25)"/>
</clipPath>
</defs>
</svg>
