<svg width="25" height="24" viewBox="0 0 25 24" fill="none" xmlns="http://www.w3.org/2000/svg">
<g clip-path="url(#clip0_127_485)">
<path d="M19.331 2.14067L13.066 0.0516681C12.8609 -0.016653 12.6391 -0.016653 12.434 0.0516681L6.168 2.14067C5.17209 2.47172 4.30582 3.10817 3.69224 3.95961C3.07866 4.81105 2.74897 5.83418 2.75 6.88367V12.0007C2.75 19.5637 11.95 23.7407 12.344 23.9147C12.4718 23.9715 12.6101 24.0008 12.75 24.0008C12.8899 24.0008 13.0282 23.9715 13.156 23.9147C13.55 23.7407 22.75 19.5637 22.75 12.0007V6.88367C22.751 5.83406 22.4211 4.81083 21.8074 3.95938C21.1936 3.10793 20.3271 2.47155 19.331 2.14067V2.14067Z" fill="#CCF0FA"/>
</g>
<defs>
<clipPath id="clip0_127_485">
<rect width="24" height="24" fill="white" transform="translate(0.75)"/>
</clipPath>
</defs>
</svg>
