<svg width="25" height="24" viewBox="0 0 25 24" fill="none" xmlns="http://www.w3.org/2000/svg">
<g clip-path="url(#clip0_127_498)">
<path d="M6.47376 8.68492L4.39976 9.29292C3.7258 9.49076 3.10069 9.82739 2.56457 10.2812C2.02846 10.735 1.5932 11.2959 1.28676 11.9279C0.985362 12.5514 0.817494 13.2309 0.793903 13.923C0.770311 14.615 0.891516 15.3044 1.14976 15.9469C1.15676 15.9649 1.16576 15.9819 1.17276 15.9999L2.89276 15.7189C4.51391 15.2967 5.99635 14.4575 7.19276 13.2849C7.28665 13.193 7.39773 13.1205 7.51966 13.0715C7.64159 13.0225 7.77197 12.998 7.90336 12.9994C8.03476 13.0008 8.16459 13.028 8.28545 13.0796C8.40631 13.1312 8.51583 13.206 8.60776 13.2999C8.69968 13.3938 8.77221 13.5049 8.82121 13.6268C8.8702 13.7487 8.8947 13.8791 8.89331 14.0105C8.89192 14.1419 8.86466 14.2718 8.81309 14.3926C8.76152 14.5135 8.68665 14.623 8.59276 14.7149C7.12026 16.1523 5.2933 17.1739 3.29776 17.6759L2.12576 17.8699C2.80013 18.9659 3.63623 19.9537 4.60576 20.7999L6.65876 20.0379L8.05876 19.3379C9.50201 18.6126 10.7376 17.5329 11.6498 16.1999L12.1688 15.4389C12.241 15.3265 12.335 15.2296 12.4452 15.1541C12.5555 15.0786 12.6798 15.026 12.8107 14.9993C12.9417 14.9727 13.0766 14.9725 13.2076 14.9989C13.3386 15.0253 13.463 15.0776 13.5734 15.1529C13.6839 15.2282 13.7781 15.3248 13.8505 15.4371C13.923 15.5494 13.9722 15.6751 13.9952 15.8067C14.0183 15.9383 14.0147 16.0732 13.9848 16.2035C13.9548 16.3337 13.899 16.4566 13.8208 16.5649L13.3028 17.3259C12.1993 18.9406 10.7035 20.2482 8.95576 21.1259L7.40576 21.8989L6.56276 22.2109C8.59438 23.3954 10.9051 24.0167 13.2568 24.0109H14.1808C14.3875 24.0108 14.5892 23.9473 14.7588 23.8289C16.8766 22.3895 18.6305 20.4771 19.8818 18.2429L8.98976 7.54892C8.195 8.01815 7.35132 8.39908 6.47376 8.68492Z" fill="#CCD3FA"/>
<path d="M23.9651 2.285C23.7753 2.09582 23.5181 1.98959 23.2501 1.98959C22.9821 1.98959 22.725 2.09582 22.5351 2.285L17.7711 7.049L17.4511 6.736C16.6074 5.91195 15.5 5.41209 14.3239 5.32446C13.1478 5.23684 11.9786 5.56707 11.0221 6.257C10.9301 6.323 10.8391 6.378 10.7461 6.442L20.7731 16.286C21.0922 15.4221 21.3266 14.5292 21.4731 13.62C21.5971 12.8279 21.53 12.0176 21.2772 11.2567C21.0244 10.4959 20.5934 9.80646 20.0201 9.246L19.2201 8.462L23.9671 3.715C24.156 3.52487 24.2619 3.26761 24.2615 2.99958C24.2612 2.73156 24.1546 2.4746 23.9651 2.285Z" fill="#CCD3FA"/>
</g>
<defs>
<clipPath id="clip0_127_498">
<rect width="24" height="24" fill="white" transform="translate(0.25)"/>
</clipPath>
</defs>
</svg>
