<svg width="24" height="25" viewBox="0 0 24 25" fill="none" xmlns="http://www.w3.org/2000/svg">
<g clip-path="url(#clip0_189_881)">
<path d="M19 4.50024H5C3.67441 4.50183 2.40356 5.02913 1.46622 5.96646C0.528882 6.9038 0.00158786 8.17465 0 9.50024L0 15.5002C0.00158786 16.8258 0.528882 18.0967 1.46622 19.034C2.40356 19.9714 3.67441 20.4987 5 20.5002H19C20.3256 20.4987 21.5964 19.9714 22.5338 19.034C23.4711 18.0967 23.9984 16.8258 24 15.5002V9.50024C23.9984 8.17465 23.4711 6.9038 22.5338 5.96646C21.5964 5.02913 20.3256 4.50183 19 4.50024ZM4 17.5002C3.80222 17.5002 3.60888 17.4416 3.44443 17.3317C3.27998 17.2218 3.15181 17.0657 3.07612 16.8829C3.00043 16.7002 2.98063 16.4991 3.01921 16.3052C3.0578 16.1112 3.15304 15.933 3.29289 15.7931C3.43275 15.6533 3.61093 15.558 3.80491 15.5195C3.99889 15.4809 4.19996 15.5007 4.38268 15.5764C4.56541 15.6521 4.72159 15.7802 4.83147 15.9447C4.94135 16.1091 5 16.3025 5 16.5002C5 16.7655 4.89464 17.0198 4.70711 17.2074C4.51957 17.3949 4.26522 17.5002 4 17.5002ZM4 9.50024C3.80222 9.50024 3.60888 9.4416 3.44443 9.33171C3.27998 9.22183 3.15181 9.06565 3.07612 8.88293C3.00043 8.7002 2.98063 8.49913 3.01921 8.30515C3.0578 8.11117 3.15304 7.93299 3.29289 7.79314C3.43275 7.65329 3.61093 7.55804 3.80491 7.51946C3.99889 7.48087 4.19996 7.50068 4.38268 7.57636C4.56541 7.65205 4.72159 7.78022 4.83147 7.94467C4.94135 8.10912 5 8.30246 5 8.50024C5 8.76546 4.89464 9.01981 4.70711 9.20735C4.51957 9.39489 4.26522 9.50024 4 9.50024ZM12 16.5002C11.2089 16.5002 10.4355 16.2656 9.77772 15.8261C9.11992 15.3866 8.60723 14.7619 8.30448 14.031C8.00173 13.3001 7.92252 12.4958 8.07686 11.7199C8.2312 10.944 8.61216 10.2312 9.17157 9.67182C9.73098 9.11241 10.4437 8.73144 11.2196 8.5771C11.9956 8.42276 12.7998 8.50198 13.5307 8.80473C14.2616 9.10748 14.8864 9.62017 15.3259 10.278C15.7654 10.9358 16 11.7091 16 12.5002C16 13.5611 15.5786 14.5785 14.8284 15.3287C14.0783 16.0788 13.0609 16.5002 12 16.5002ZM20 17.5002C19.8022 17.5002 19.6089 17.4416 19.4444 17.3317C19.28 17.2218 19.1518 17.0657 19.0761 16.8829C19.0004 16.7002 18.9806 16.4991 19.0192 16.3052C19.0578 16.1112 19.153 15.933 19.2929 15.7931C19.4327 15.6533 19.6109 15.558 19.8049 15.5195C19.9989 15.4809 20.2 15.5007 20.3827 15.5764C20.5654 15.6521 20.7216 15.7802 20.8315 15.9447C20.9414 16.1091 21 16.3025 21 16.5002C21 16.7655 20.8946 17.0198 20.7071 17.2074C20.5196 17.3949 20.2652 17.5002 20 17.5002ZM20 9.50024C19.8022 9.50024 19.6089 9.4416 19.4444 9.33171C19.28 9.22183 19.1518 9.06565 19.0761 8.88293C19.0004 8.7002 18.9806 8.49913 19.0192 8.30515C19.0578 8.11117 19.153 7.93299 19.2929 7.79314C19.4327 7.65329 19.6109 7.55804 19.8049 7.51946C19.9989 7.48087 20.2 7.50068 20.3827 7.57636C20.5654 7.65205 20.7216 7.78022 20.8315 7.94467C20.9414 8.10912 21 8.30246 21 8.50024C21 8.76546 20.8946 9.01981 20.7071 9.20735C20.5196 9.39489 20.2652 9.50024 20 9.50024ZM14 12.5002C14 12.8958 13.8827 13.2825 13.6629 13.6114C13.4432 13.9403 13.1308 14.1966 12.7654 14.348C12.3999 14.4994 11.9978 14.539 11.6098 14.4618C11.2219 14.3846 10.8655 14.1942 10.5858 13.9145C10.3061 13.6348 10.1156 13.2784 10.0384 12.8904C9.96126 12.5025 10.0009 12.1003 10.1522 11.7349C10.3036 11.3694 10.56 11.0571 10.8889 10.8373C11.2178 10.6175 11.6044 10.5002 12 10.5002C12.5304 10.5002 13.0391 10.711 13.4142 11.086C13.7893 11.4611 14 11.9698 14 12.5002Z" fill="#161622"/>
</g>
<defs>
<clipPath id="clip0_189_881">
<rect width="24" height="24" fill="white" transform="translate(0 0.5)"/>
</clipPath>
</defs>
</svg>
