<svg width="16" height="17" viewBox="0 0 16 17" fill="none" xmlns="http://www.w3.org/2000/svg">
<g clip-path="url(#clip0_104_434)">
<path d="M15.514 6.77923C14.48 5.09523 12.128 2.2699 8.00003 2.2699C3.87203 2.2699 1.52003 5.09523 0.486034 6.77923C0.166386 7.29624 -0.00292969 7.89206 -0.00292969 8.4999C-0.00292969 9.10774 0.166386 9.70356 0.486034 10.2206C1.52003 11.9046 3.87203 14.7299 8.00003 14.7299C12.128 14.7299 14.48 11.9046 15.514 10.2206C15.8337 9.70356 16.003 9.10774 16.003 8.4999C16.003 7.89206 15.8337 7.29624 15.514 6.77923V6.77923ZM14.3774 9.52256C13.4894 10.9666 11.4794 13.3966 8.00003 13.3966C4.5207 13.3966 2.5107 10.9666 1.6227 9.52256C1.43279 9.21526 1.3322 8.86115 1.3322 8.4999C1.3322 8.13865 1.43279 7.78453 1.6227 7.47723C2.5107 6.03323 4.5207 3.60323 8.00003 3.60323C11.4794 3.60323 13.4894 6.03056 14.3774 7.47723C14.5673 7.78453 14.6679 8.13865 14.6679 8.4999C14.6679 8.86115 14.5673 9.21526 14.3774 9.52256V9.52256Z" fill="#81819C"/>
<path d="M7.99984 5.16656C7.34057 5.16656 6.6961 5.36206 6.14794 5.72833C5.59977 6.0946 5.17253 6.6152 4.92024 7.22429C4.66795 7.83337 4.60194 8.5036 4.73055 9.1502C4.85917 9.7968 5.17664 10.3907 5.64282 10.8569C6.10899 11.3231 6.70293 11.6406 7.34954 11.7692C7.99614 11.8978 8.66636 11.8318 9.27545 11.5795C9.88454 11.3272 10.4051 10.9 10.7714 10.3518C11.1377 9.80364 11.3332 9.15917 11.3332 8.4999C11.3321 7.61617 10.9806 6.76894 10.3557 6.14404C9.7308 5.51915 8.88357 5.16762 7.99984 5.16656V5.16656ZM7.99984 10.4999C7.60428 10.4999 7.2176 10.3826 6.8887 10.1628C6.5598 9.94308 6.30345 9.63072 6.15208 9.26527C6.0007 8.89981 5.9611 8.49768 6.03827 8.10972C6.11544 7.72176 6.30592 7.36539 6.58562 7.08568C6.86533 6.80598 7.2217 6.6155 7.60966 6.53833C7.99762 6.46116 8.39975 6.50076 8.76521 6.65214C9.13066 6.80351 9.44302 7.05986 9.66278 7.38876C9.88254 7.71766 9.99984 8.10434 9.99984 8.4999C9.99984 9.03033 9.78913 9.53904 9.41405 9.91411C9.03898 10.2892 8.53027 10.4999 7.99984 10.4999Z" fill="#81819C"/>
</g>
<defs>
<clipPath id="clip0_104_434">
<rect width="16" height="16" fill="white" transform="translate(0 0.5)"/>
</clipPath>
</defs>
</svg>
