<svg width="25" height="24" viewBox="0 0 25 24" fill="none" xmlns="http://www.w3.org/2000/svg">
<g clip-path="url(#clip0_132_546)">
<path d="M16.3333 0H8.33325C7.00766 0.00158786 5.73681 0.528882 4.79947 1.46622C3.86213 2.40356 3.33484 3.67441 3.33325 5V23C3.33339 23.1819 3.38314 23.3603 3.47713 23.516C3.57113 23.6717 3.70581 23.7989 3.86669 23.8837C4.02757 23.9686 4.20854 24.008 4.39013 23.9976C4.57172 23.9873 4.74706 23.9276 4.89725 23.825L7.00325 22.386L9.10925 23.825C9.27564 23.9389 9.47259 23.9999 9.67425 23.9999C9.87591 23.9999 10.0729 23.9389 10.2393 23.825L12.3393 22.386L14.4393 23.825C14.6057 23.9392 14.8029 24.0003 15.0048 24.0003C15.2066 24.0003 15.4038 23.9392 15.5703 23.825L17.6703 22.387L19.7703 23.824C19.9204 23.9263 20.0955 23.9857 20.2769 23.996C20.4582 24.0062 20.6389 23.9669 20.7996 23.8821C20.9603 23.7974 21.0949 23.6706 21.1889 23.5151C21.2829 23.3597 21.3328 23.1816 21.3333 23V5C21.3317 3.67441 20.8044 2.40356 19.867 1.46622C18.9297 0.528882 17.6588 0.00158786 16.3333 0V0ZM19.3333 21.1L18.2333 20.348C18.0667 20.2336 17.8693 20.1724 17.6673 20.1724C17.4652 20.1724 17.2678 20.2336 17.1013 20.348L15.0013 21.787L12.9013 20.348C12.7348 20.2338 12.5376 20.1727 12.3358 20.1727C12.1339 20.1727 11.9367 20.2338 11.7703 20.348L9.67025 21.787L7.57025 20.348C7.40396 20.2343 7.20721 20.1734 7.00575 20.1734C6.8043 20.1734 6.60754 20.2343 6.44125 20.348L5.33325 21.1V5C5.33325 4.20435 5.64932 3.44129 6.21193 2.87868C6.77454 2.31607 7.5376 2 8.33325 2H16.3333C17.1289 2 17.892 2.31607 18.4546 2.87868C19.0172 3.44129 19.3333 4.20435 19.3333 5V21.1Z" fill="#81819C"/>
<path d="M16.333 8.00061H8.33301C7.78072 8.00061 7.33301 8.44832 7.33301 9.00061C7.33301 9.55289 7.78072 10.0006 8.33301 10.0006H16.333C16.8853 10.0006 17.333 9.55289 17.333 9.00061C17.333 8.44832 16.8853 8.00061 16.333 8.00061Z" fill="#81819C"/>
<path d="M14.333 12H8.33301C7.78072 12 7.33301 12.4477 7.33301 13C7.33301 13.5523 7.78072 14 8.33301 14H14.333C14.8853 14 15.333 13.5523 15.333 13C15.333 12.4477 14.8853 12 14.333 12Z" fill="#81819C"/>
</g>
<defs>
<clipPath id="clip0_132_546">
<rect width="24" height="24" fill="white" transform="translate(0.333252)"/>
</clipPath>
</defs>
</svg>
